<mxfile host="app.diagrams.net" modified="2022-08-30T06:40:39.540Z" agent="5.0 (Windows NT 10.0; WOW64) AppleWebKit/537.36 (KHTML, like Gecko) Chrome/99.0.4844.84 Safari/537.36" etag="UwTNuJDCVcGuIUmhDY3G" version="20.2.7" type="github">
  <diagram id="vvuo7X2bS_a6gHyC4XbX" name="第 1 页">
    <mxGraphModel dx="2249" dy="762" grid="1" gridSize="10" guides="1" tooltips="1" connect="1" arrows="1" fold="1" page="1" pageScale="1" pageWidth="827" pageHeight="1169" math="0" shadow="0">
      <root>
        <mxCell id="0" />
        <mxCell id="1" parent="0" />
        <mxCell id="nIbAqqJ6I6tUwXIwnfjO-1" value="" style="rounded=1;whiteSpace=wrap;html=1;" vertex="1" parent="1">
          <mxGeometry x="240" y="140" width="300" height="110" as="geometry" />
        </mxCell>
        <mxCell id="nIbAqqJ6I6tUwXIwnfjO-2" value="Application" style="rounded=1;whiteSpace=wrap;html=1;" vertex="1" parent="1">
          <mxGeometry x="560" y="450" width="80" height="60" as="geometry" />
        </mxCell>
        <mxCell id="nIbAqqJ6I6tUwXIwnfjO-4" value="Application" style="rounded=1;whiteSpace=wrap;html=1;" vertex="1" parent="1">
          <mxGeometry x="660" y="450" width="80" height="60" as="geometry" />
        </mxCell>
        <mxCell id="nIbAqqJ6I6tUwXIwnfjO-7" value="" style="endArrow=none;dashed=1;html=1;rounded=0;" edge="1" parent="1">
          <mxGeometry width="50" height="50" relative="1" as="geometry">
            <mxPoint x="760" y="520" as="sourcePoint" />
            <mxPoint x="520" y="520" as="targetPoint" />
          </mxGeometry>
        </mxCell>
        <mxCell id="nIbAqqJ6I6tUwXIwnfjO-8" value="" style="endArrow=none;dashed=1;html=1;rounded=0;" edge="1" parent="1">
          <mxGeometry width="50" height="50" relative="1" as="geometry">
            <mxPoint x="760" y="520" as="sourcePoint" />
            <mxPoint x="760" y="440" as="targetPoint" />
          </mxGeometry>
        </mxCell>
        <mxCell id="nIbAqqJ6I6tUwXIwnfjO-9" value="" style="endArrow=classic;html=1;rounded=0;entryX=1;entryY=0.5;entryDx=0;entryDy=0;" edge="1" parent="1">
          <mxGeometry width="50" height="50" relative="1" as="geometry">
            <mxPoint x="660" y="443" as="sourcePoint" />
            <mxPoint x="540" y="198" as="targetPoint" />
            <Array as="points">
              <mxPoint x="660" y="198" />
            </Array>
          </mxGeometry>
        </mxCell>
        <mxCell id="nIbAqqJ6I6tUwXIwnfjO-10" value="服务注册" style="edgeLabel;html=1;align=center;verticalAlign=middle;resizable=0;points=[];" vertex="1" connectable="0" parent="nIbAqqJ6I6tUwXIwnfjO-9">
          <mxGeometry x="0.103" y="-3" relative="1" as="geometry">
            <mxPoint as="offset" />
          </mxGeometry>
        </mxCell>
        <mxCell id="nIbAqqJ6I6tUwXIwnfjO-13" value="Consumer" style="rounded=1;whiteSpace=wrap;html=1;" vertex="1" parent="1">
          <mxGeometry x="60" y="450" width="80" height="60" as="geometry" />
        </mxCell>
        <mxCell id="nIbAqqJ6I6tUwXIwnfjO-14" value="Consumer" style="rounded=1;whiteSpace=wrap;html=1;" vertex="1" parent="1">
          <mxGeometry x="170" y="450" width="80" height="60" as="geometry" />
        </mxCell>
        <mxCell id="nIbAqqJ6I6tUwXIwnfjO-16" value="" style="endArrow=none;dashed=1;html=1;rounded=0;" edge="1" parent="1">
          <mxGeometry width="50" height="50" relative="1" as="geometry">
            <mxPoint x="280" y="520" as="sourcePoint" />
            <mxPoint x="280" y="440" as="targetPoint" />
          </mxGeometry>
        </mxCell>
        <mxCell id="nIbAqqJ6I6tUwXIwnfjO-17" value="" style="endArrow=none;dashed=1;html=1;rounded=0;" edge="1" parent="1">
          <mxGeometry width="50" height="50" relative="1" as="geometry">
            <mxPoint x="280" y="520" as="sourcePoint" />
            <mxPoint x="40" y="520" as="targetPoint" />
          </mxGeometry>
        </mxCell>
        <mxCell id="nIbAqqJ6I6tUwXIwnfjO-18" value="" style="endArrow=none;dashed=1;html=1;rounded=0;" edge="1" parent="1">
          <mxGeometry width="50" height="50" relative="1" as="geometry">
            <mxPoint x="40" y="520" as="sourcePoint" />
            <mxPoint x="40" y="440" as="targetPoint" />
          </mxGeometry>
        </mxCell>
        <mxCell id="nIbAqqJ6I6tUwXIwnfjO-19" value="" style="endArrow=none;dashed=1;html=1;rounded=0;" edge="1" parent="1">
          <mxGeometry width="50" height="50" relative="1" as="geometry">
            <mxPoint x="280" y="440" as="sourcePoint" />
            <mxPoint x="40" y="440" as="targetPoint" />
          </mxGeometry>
        </mxCell>
        <mxCell id="nIbAqqJ6I6tUwXIwnfjO-22" value="服务消费者" style="edgeLabel;html=1;align=center;verticalAlign=middle;resizable=0;points=[];" vertex="1" connectable="0" parent="nIbAqqJ6I6tUwXIwnfjO-19">
          <mxGeometry x="0.1583" y="2" relative="1" as="geometry">
            <mxPoint as="offset" />
          </mxGeometry>
        </mxCell>
        <mxCell id="nIbAqqJ6I6tUwXIwnfjO-20" value="服务提供方集群" style="endArrow=none;dashed=1;html=1;rounded=0;" edge="1" parent="1">
          <mxGeometry width="50" height="50" relative="1" as="geometry">
            <mxPoint x="760" y="440" as="sourcePoint" />
            <mxPoint x="520" y="440" as="targetPoint" />
          </mxGeometry>
        </mxCell>
        <mxCell id="nIbAqqJ6I6tUwXIwnfjO-21" value="" style="endArrow=none;dashed=1;html=1;rounded=0;" edge="1" parent="1">
          <mxGeometry width="50" height="50" relative="1" as="geometry">
            <mxPoint x="520" y="520" as="sourcePoint" />
            <mxPoint x="520" y="440" as="targetPoint" />
          </mxGeometry>
        </mxCell>
        <mxCell id="nIbAqqJ6I6tUwXIwnfjO-23" value="" style="endArrow=classic;html=1;rounded=0;" edge="1" parent="1">
          <mxGeometry width="50" height="50" relative="1" as="geometry">
            <mxPoint x="160" y="439" as="sourcePoint" />
            <mxPoint x="240" y="200" as="targetPoint" />
            <Array as="points">
              <mxPoint x="160" y="199" />
            </Array>
          </mxGeometry>
        </mxCell>
        <mxCell id="nIbAqqJ6I6tUwXIwnfjO-26" value="查询服务提供方&lt;br&gt;实例列表" style="text;html=1;align=center;verticalAlign=middle;resizable=0;points=[];autosize=1;strokeColor=none;fillColor=none;" vertex="1" parent="1">
          <mxGeometry x="95" y="270" width="110" height="40" as="geometry" />
        </mxCell>
        <mxCell id="nIbAqqJ6I6tUwXIwnfjO-28" value="" style="endArrow=classic;html=1;rounded=0;" edge="1" parent="1">
          <mxGeometry width="50" height="50" relative="1" as="geometry">
            <mxPoint x="200" y="440" as="sourcePoint" />
            <mxPoint x="240" y="220" as="targetPoint" />
            <Array as="points">
              <mxPoint x="200" y="220" />
            </Array>
          </mxGeometry>
        </mxCell>
        <mxCell id="nIbAqqJ6I6tUwXIwnfjO-29" value="定时任务拉取" style="edgeLabel;html=1;align=center;verticalAlign=middle;resizable=0;points=[];" vertex="1" connectable="0" parent="nIbAqqJ6I6tUwXIwnfjO-28">
          <mxGeometry x="-0.4385" y="2" relative="1" as="geometry">
            <mxPoint as="offset" />
          </mxGeometry>
        </mxCell>
        <mxCell id="nIbAqqJ6I6tUwXIwnfjO-30" value="" style="endArrow=classic;html=1;rounded=0;exitX=-0.017;exitY=0.2;exitDx=0;exitDy=0;exitPerimeter=0;" edge="1" parent="1" source="nIbAqqJ6I6tUwXIwnfjO-1">
          <mxGeometry width="50" height="50" relative="1" as="geometry">
            <mxPoint x="390" y="410" as="sourcePoint" />
            <mxPoint x="60" y="440" as="targetPoint" />
            <Array as="points">
              <mxPoint x="60" y="160" />
            </Array>
          </mxGeometry>
        </mxCell>
        <mxCell id="nIbAqqJ6I6tUwXIwnfjO-31" value="服务提供者异常&lt;br&gt;基于UDP协议实时推送更新" style="edgeLabel;html=1;align=center;verticalAlign=middle;resizable=0;points=[];" vertex="1" connectable="0" parent="nIbAqqJ6I6tUwXIwnfjO-30">
          <mxGeometry x="-0.0464" relative="1" as="geometry">
            <mxPoint as="offset" />
          </mxGeometry>
        </mxCell>
        <mxCell id="nIbAqqJ6I6tUwXIwnfjO-32" value="" style="endArrow=classic;html=1;rounded=0;" edge="1" parent="1">
          <mxGeometry width="50" height="50" relative="1" as="geometry">
            <mxPoint x="280" y="480" as="sourcePoint" />
            <mxPoint x="520" y="480" as="targetPoint" />
          </mxGeometry>
        </mxCell>
        <mxCell id="nIbAqqJ6I6tUwXIwnfjO-33" value="RPC远程过程调用" style="edgeLabel;html=1;align=center;verticalAlign=middle;resizable=0;points=[];" vertex="1" connectable="0" parent="nIbAqqJ6I6tUwXIwnfjO-32">
          <mxGeometry x="-0.15" relative="1" as="geometry">
            <mxPoint as="offset" />
          </mxGeometry>
        </mxCell>
        <mxCell id="nIbAqqJ6I6tUwXIwnfjO-34" value="void registerServer(String serviceName,URI uri);&lt;br&gt;&lt;br&gt;URI lookupService(String serviceName)" style="rounded=1;whiteSpace=wrap;html=1;" vertex="1" parent="1">
          <mxGeometry x="250" y="160" width="290" height="80" as="geometry" />
        </mxCell>
        <mxCell id="nIbAqqJ6I6tUwXIwnfjO-35" value="&lt;span style=&quot;font-size: 12px;&quot;&gt;NameService&lt;/span&gt;" style="text;strokeColor=none;fillColor=none;html=1;fontSize=24;fontStyle=1;verticalAlign=middle;align=center;" vertex="1" parent="1">
          <mxGeometry x="260" y="160" width="80" height="10" as="geometry" />
        </mxCell>
        <mxCell id="nIbAqqJ6I6tUwXIwnfjO-36" value="&lt;font style=&quot;font-size: 12px;&quot;&gt;NacosServer&lt;/font&gt;" style="text;strokeColor=none;fillColor=none;html=1;fontSize=24;fontStyle=1;verticalAlign=middle;align=center;" vertex="1" parent="1">
          <mxGeometry x="260" y="140" width="40" height="20" as="geometry" />
        </mxCell>
        <mxCell id="nIbAqqJ6I6tUwXIwnfjO-38" value="1.服务端向RPC注册服务之后，RPC会把这个服务的名称和地址发布到注册中心上；&lt;br&gt;" style="text;html=1;align=center;verticalAlign=middle;resizable=0;points=[];autosize=1;strokeColor=none;fillColor=none;fontSize=12;" vertex="1" parent="1">
          <mxGeometry x="40" y="585" width="470" height="30" as="geometry" />
        </mxCell>
        <mxCell id="nIbAqqJ6I6tUwXIwnfjO-40" value="2.客户端的桩在调用服务端之前，会向注册中心请求服务端的地址，请求参数为服务端名称；" style="text;html=1;align=center;verticalAlign=middle;resizable=0;points=[];autosize=1;strokeColor=none;fillColor=none;fontSize=12;" vertex="1" parent="1">
          <mxGeometry x="37" y="640" width="510" height="30" as="geometry" />
        </mxCell>
        <mxCell id="nIbAqqJ6I6tUwXIwnfjO-41" value="3.注册中心返回提供这个服务的地址，然后客户端再去请求服务端。" style="text;html=1;align=center;verticalAlign=middle;resizable=0;points=[];autosize=1;strokeColor=none;fillColor=none;fontSize=12;" vertex="1" parent="1">
          <mxGeometry x="39" y="690" width="380" height="30" as="geometry" />
        </mxCell>
        <mxCell id="nIbAqqJ6I6tUwXIwnfjO-43" value="Nacos注册中心" style="text;strokeColor=none;fillColor=none;html=1;fontSize=24;fontStyle=1;verticalAlign=middle;align=center;" vertex="1" parent="1">
          <mxGeometry y="30" width="170" height="40" as="geometry" />
        </mxCell>
        <mxCell id="nIbAqqJ6I6tUwXIwnfjO-44" value="NameService 与&amp;nbsp; RPC" style="text;strokeColor=none;fillColor=none;html=1;fontSize=24;fontStyle=1;verticalAlign=middle;align=center;" vertex="1" parent="1">
          <mxGeometry y="790" width="240" height="40" as="geometry" />
        </mxCell>
        <mxCell id="nIbAqqJ6I6tUwXIwnfjO-46" value="NameService: 注册中心；提供服务端的服务注册与客户端的服务查找。" style="text;html=1;align=center;verticalAlign=middle;resizable=0;points=[];autosize=1;strokeColor=none;fillColor=none;fontSize=12;" vertex="1" parent="1">
          <mxGeometry x="-5" y="850" width="400" height="30" as="geometry" />
        </mxCell>
        <mxCell id="nIbAqqJ6I6tUwXIwnfjO-47" value="RPC:远程过程调用；负责客户端到服务端的访问。" style="text;html=1;align=center;verticalAlign=middle;resizable=0;points=[];autosize=1;strokeColor=none;fillColor=none;fontSize=12;" vertex="1" parent="1">
          <mxGeometry x="-5" y="890" width="290" height="30" as="geometry" />
        </mxCell>
        <mxCell id="nIbAqqJ6I6tUwXIwnfjO-48" value="" style="rounded=1;whiteSpace=wrap;html=1;fontSize=12;" vertex="1" parent="1">
          <mxGeometry x="-5" y="940" width="345" height="180" as="geometry" />
        </mxCell>
        <mxCell id="nIbAqqJ6I6tUwXIwnfjO-49" value="&lt;font style=&quot;font-size: 12px;&quot;&gt;NameService&lt;/font&gt;" style="text;strokeColor=none;fillColor=none;html=1;fontSize=24;fontStyle=1;verticalAlign=middle;align=center;" vertex="1" parent="1">
          <mxGeometry x="125" y="970" width="80" height="30" as="geometry" />
        </mxCell>
        <mxCell id="nIbAqqJ6I6tUwXIwnfjO-51" value="&lt;span style=&quot;font-size: 12px; font-weight: 400;&quot;&gt;void registerServer(String serviceName,URI uri);&lt;/span&gt;" style="text;strokeColor=none;fillColor=none;html=1;fontSize=24;fontStyle=1;verticalAlign=middle;align=center;" vertex="1" parent="1">
          <mxGeometry x="15" y="990" width="270" height="40" as="geometry" />
        </mxCell>
        <mxCell id="nIbAqqJ6I6tUwXIwnfjO-55" value="&lt;br style=&quot;font-size: 12px; font-weight: 400;&quot;&gt;&lt;br style=&quot;font-size: 12px; font-weight: 400;&quot;&gt;&lt;span style=&quot;font-size: 12px; font-weight: 400;&quot;&gt;URI lookupService(String serviceName)&lt;/span&gt;" style="text;strokeColor=none;fillColor=none;html=1;fontSize=24;fontStyle=1;verticalAlign=middle;align=center;" vertex="1" parent="1">
          <mxGeometry x="-5" y="1040" width="270" height="50" as="geometry" />
        </mxCell>
        <mxCell id="nIbAqqJ6I6tUwXIwnfjO-56" value="" style="rounded=1;whiteSpace=wrap;html=1;fontSize=12;" vertex="1" parent="1">
          <mxGeometry x="374.5" y="940" width="380" height="180" as="geometry" />
        </mxCell>
        <mxCell id="nIbAqqJ6I6tUwXIwnfjO-57" value="&lt;font style=&quot;font-size: 12px;&quot;&gt;RPC&lt;/font&gt;" style="text;strokeColor=none;fillColor=none;html=1;fontSize=24;fontStyle=1;verticalAlign=middle;align=center;" vertex="1" parent="1">
          <mxGeometry x="547" y="940" width="85" height="30" as="geometry" />
        </mxCell>
        <mxCell id="nIbAqqJ6I6tUwXIwnfjO-58" value="&lt;font style=&quot;font-size: 12px;&quot;&gt;&amp;lt;T&amp;gt; T getRemoteService(URI uri,Class&amp;lt;T&amp;gt; serviceClass)&lt;/font&gt;" style="text;strokeColor=none;fillColor=none;html=1;fontSize=24;fontStyle=1;verticalAlign=middle;align=center;" vertex="1" parent="1">
          <mxGeometry x="382.5" y="965" width="330" height="40" as="geometry" />
        </mxCell>
        <mxCell id="nIbAqqJ6I6tUwXIwnfjO-60" value="&lt;font style=&quot;font-size: 12px;&quot;&gt;&amp;lt;T&amp;gt; URI addServiceProvider(T service,Class&amp;lt;T&amp;gt; serviceClass)&lt;/font&gt;" style="text;strokeColor=none;fillColor=none;html=1;fontSize=24;fontStyle=1;verticalAlign=middle;align=center;" vertex="1" parent="1">
          <mxGeometry x="405" y="1005" width="330" height="40" as="geometry" />
        </mxCell>
        <mxCell id="nIbAqqJ6I6tUwXIwnfjO-67" value="" style="shape=image;imageAspect=0;aspect=fixed;verticalLabelPosition=bottom;verticalAlign=top;fontSize=12;image=data:image/png,iVBORw0KGgoAAAANSUhEUgAABGYAAAJYCAIAAACvi3dDAAAACXBIWXMAABYlAAAWJQFJUiTwAAAAEXRFWHRTb2Z0d2FyZQBTbmlwYXN0ZV0Xzt0AACAASURBVHic7N1/cBv1nfj/19I0XH9cSSgh0p3t1DSXkLYpPZtvsNQCH9xL2jRJE0tjF0vDZw5CynA+wzRxZjpj2b2zpZn7DE5mgselNATujkqm9kkJDWkgmTNXUiSTYl8hOQK+NG5sX6UQNwlQ2mtaut8/Vj9WsuSfsnctPx/DH9Zq9d7XvrN+o5ffr/euoqqqAAAAAACyucboAAAAAADAvEiZAAAAACAnUiYAAAAAyImUCQAAAAByImUCAAAAgJxImQAAAAAgJ1ImAAAAAMiJlAkAAAAAciJlAgAAAICcSJkAAAAAICdSJgAAAADIaZHRAaR57bXXjh594Z133lVVVVGU6677xMaNX7nllluMjgsAAADAAqWoqmp0DCIi586de+KJJ2+66ea77tqwePG12sarV3//4ovHzp178/7777vpppuMjRAAAADAAmSKlOknP/nJv//7T3bseDjXDvv37/vyl++888475zIqAAAAADB+LdO5c+fGz5dEZMeOh//9339y7ty5OYsKAAAAAMQMKdMTTzw5fr6k2bHj4SeeeHIO4gEAAACAJINTptdee+2mm26e5M433XTza6+9NqvxAAAAAICewSnT0aMv3HXXhknufNddG44efWFW4wEAAAAAPYNTpnfeeTd5f7wJLV587TvvvDur8QAAAACAnsEp01Tv12eG+/sBAAAAWDgMTpkURZnV/QEAAABgJgxOma677hNXr/5+kjtfvfr76677xKzGAwAAAAB6BqdMGzd+5cUXj01y5xdfPLZx41dmNR4AAAAA0DM4ZbrlllvOnXtzkjufO/fmLbfcMqvxAAAAAICe8Y+yvf/++/bv3zfhbvv377v//vvmIB4AAAAASDI+Zbrpppu+/OU7x8+a9u/f9+Uv33nTTTfNWVQAAAAAICKKSW7bfe7cuSeeePKmm26+664NySc1Xb36+xdfPHbu3Jv3338f+RIAAACAuWeWlEnz2muvHT36wjvvvBuN/spq/YvrrvvExo1fYf0SAAAAAKOYK2VKamtra2hoMDoKAAAAAAud8WuZAAAAAMC0SJkAAAAAICdSJgAAAADIiZQJAAAAAHIiZQIAAACAnEiZAAAAACCnub7JeDgcDofDk9nNbrdPuJvdbp/MbgAAAAAwPTyXCQAAAAByojAPAAAAAHIiZQIAAACAnEiZAAAAACAnUiYAAAAAyImUCQAAAAByImUCAAAAgJxImQAAAAAgJ1ImAAAAAMiJlAkAAAAAciJlAgAAAICcSJkAAAAAICdSJgAAAADIiZQJAAAAAHIiZQIAAACAnEiZAAAAACAnUiYAAAAAyImUCQAAAAByMmPKNDIycunSpZGREaMDAQAAALDQKaqqGh1DmitXrjzzzDMrVqw4f/783XffvWTJEqMjQp6Njo4ODAwYHcV8tWrVqhtuuGHC3Qzp5EnGBmDuLeSBl6EJwMyZK2X64x//+Mwzz9x888233nrrq6+++uabb959992LFi0yOi7kzf79T7z99qXPfvavjQ5kvvqv//rPG2+8fseO+8fZx6hOnkxsAObeAh94GZoAzJy5spHDhw8XFxffeuutInLrrbe+//77hw8frqqqMjou5Mfo6Ojbb1/6v//3AaMDmcfKy9f9678+Pjo6muuPpgZ28oSxAZh7DLwMTQBmzkRrmY4fP7548eI777wzueXOO+9cvHjx8ePHDYwKeTQwMLBg/8yZR5/97F+PU2BjbCePHxuAucfAKwxNAGbMLClTJBK5dOnSpk2bMrZv2rTp0qVLkUjEkKgAAAAALHCmSJlef/31N954Y/PmzVnf3bx58xtvvPH666/PcVQAAAAAYHzKdO7cuRdffHHz5s0f+9jHsu7wsY99bPPmzS+++OK5c+fmODYAAAAAC5zBKdOFCxcOHz68ZcuW5cuXj7Pb8uXLt2zZcvjw4QsXLsxZbAAAAABgZMr0/vvvP/fcc3fddddNN9004c433XTTXXfd9dxzz73//vtzEBsAAAAAiLEp03PPPbdmzZrPf/7zk9z/85///Jo1a5577rlZjQoAAAAAkgxLmY4cOXL99dfb7fYpfcput19//fVHjhyZpahglL59S0pKljzwbHrhZX9bSUlb39zGUFKypKTknkPR/LZ94dCDS0r2ncxvo1OlO8ExvR3tfqBE/26Wbr/47D2pHYw+FwB509+W+tV+sPui0eEAgAkZkzL95Cc/uXr16vr166fx2fXr11+9evUnP/lJ3qOC4Y7WN+Q7V5msvn1Lqt7c3zd0ZWjoytBQ/XBLgX5v2HVsSDvHV/ZL/er0HHXLo69op3/l4C5vVVrWdOHQg0vKn/96on+u9H2qPTO/BTAP9e1bUrJNDiZ+tYd2nC/nDyIAMIYBKdOrr746PDy8ZcuWabewZcuW4eHhV199NY9RwXi7PLvl8ENdRvzfOtr9/T1bHm2uXhZ/va7+seTPebF822NXhh5el88mZ8ha/c1dcvSX57O+Wf7wsd3iDffHX/btW/2Q7O/T9cmyrU8/vnW8W7YAML+Lz95TtcdzcKihPLmprMFcIxUAmMNcp0xvvvnmq6++unnz5kWLFk27kUWLFm3evPnVV19988038xgbjHbH3e1bZM+G9v5cO5xsz1oYptXvJWtLHuy+qC9Cy/iLqa4CLf1Ah4dzT3ClWtNVrVx89p6SB7v7tHK1fSfju+nLWvrbEjV+Fw49mLMQTh+Grvht7ioSJ5CZTwIoDCefqT+8+5AuXxpDX46bNoJpo25qHEsvZk4fjbVjtaeNdWlDYtpYGh9OLxx6MNtxcw6SWvva/yPyXlkNAHOeMl26dGnz5s1LliyZYTtLlizZvHnzpUuX8hIVTGLZ1rZHN8kj27JnC337XrLHq0eO7d6zIf3/o96qE3fE3zqyo7xkyfc/9ZZWfrZRn4P1t5Xc9qONr8Qr005vS/yf1Vr9zV3yyLYl2bK1C4ceXFIl8Xq2gzfvSKtaObLj+9I2NBSfQSq/3SNHzg8lAz7hlV3126xjmox2P3Dbjs8dilfC2Ifj3yr69qWK3/raX6ua1UUFWiJUk+PPydHzp2VLsTX+81G5pXjsWQCY1/S/5tn07VtSXn9Lombv2OcyS3m9VS3iHboyNPTWo5sOP5QsZo52P7DttXiVb7O8nPNPYOmSY+kr+zfu2VBSsnp4x5WhoStDhzz6gu3xB8lHtmn/j3g6y6gLADMz1ymT3W4vKirKS1NFRUVTvXsETG/5tub9G8Vbla2Yvvzh5F9D19kzi8qS3/7X3d2+RcTzTa1szHrHxk1yelj73/yFQ/u9G9vb4v83tVZ/c9fhoycvJBq/cnCXPLJtzPRO/9MPHfEcTFSqlNfs37jnJd0OiQNpyu7Q1bOdDO+R3bdnyUn6unYc3XWsvixxXlurl0nmZM6yrfW7j/zo5bz/rXTPhvgfaFvEm/OLxYVDLTuOJpK9i8OvyaYVJfkOBIDBxv9rSLT7+3tENwe1rv6Q52j907rRLzleLd+2Q/fXIn2z1uptZTI5yUG7+pu7RDbtv1v7YNkdu5MlABMNkhvb7xlnxgwAZsLgR9kCmazV3vYtsqc9W2VFqlSjak/GW+n/48/+Ff/88BE5Wr86WWdStSct7yp/+MrQ0LHd4q3SlYJcHH5NxFuVLAi8bcdReS1Vwpd5oHX2XfLIiZMiIv0vPSIee5avCzlSqej5o3L4oduS96zb8Mi4tYLTpN3+4ZX9G4/seCbzr7/Jo69+6OZjrGcAFrTo+aMZI5h1xUb96Jcr3Sq7I2MUnZSMsfTmFVkqgScaJD9XzAJLALNl+guKgFmybGvbo8+vfqil+4s79JtPtpdsON3+1tBjy0W7wd20Gt996Er9eH/1XFc/dOXuZ+8pr284tC4xCbMp7c4H4yu/3SPbXup7eJ2c8MquY1P8k2f6OuzZY632tv+ofFubPe1wWx59Jcu807LiW+TIj16OVlPrAhQU64qNsiPc31A+2YmgSVpXP3Slvr+tZNvqkvoJh9ypmqtBEgDSzeYsU69PSaoJxOJbIz5F8fVqP8cCNYrSGpnFGDAvLd/WvH/jkR2e/a+ltvW/9EhGFdyUrSjelJgCGteyrfW7kz/HE4ZJHyRem3cynHOl0IriVK2gjnXFRt1N6mbbsq31u8X7/cn8Gbjsnkc3GXQnQwCzR1vDuT/HmsnMOaUpLmssaxgaunIwOeueOe6dH57G4xXndpAEAL3ZSpkirYpik7CasHPQOjupUazTqcvHUCis1d72LUePHE7fmvj/d3/bmMK8yVi+bYdHf0e+vn2J2z9Eux9IuxVe+yPJbwZawqBf2TzBQ0vW2XfJ6RMvnd709S9m/26xfNsOz9H61YkwLhza131RkregSK6kOtk+u8+UXHd3+5bJPQhr+bbm/Rv3bNDfe/Dis/fwXCZgvit/+NjuIzvKM+7zqf2mW6u/uevwQ7fpRqRt3kktFupvSw5uw2/Kxk+tEBGR5cU3y9HnX0rc6mbDI9MId64HSQBImZXCvFin097sDauNtuSmika1YuyOFleX6pqNCDD/Ldva9ujzhx9K/iWyrOHgriVVty15SER2HTu4S6ZTmFfW0Nf+Wvm2Jdr/rXcfulKfWKP8eHP3AyVLjmq7bdrfN5SsxFu+7bFjwyUbykt2xN96bIJFPuU1++W2HdL+Vs5avrKGoUNSEg9jy6OvPK3tWf7wW4++ubqqxCsiWv3JrN7Xe9nW+t31Gx5q6f7ihGWH1urHh+449ODqksRqg43tb/FcJmD+W1c/dMW+b0l8fBORXal1jOUPXzkoSxIjkuw+dOXxyZTYld1T/OCSkiOJ1hIDRfnDx3YnBtKN7cce3bTh6NTDneNBEgCSFFVV891mxKfYJaI2ZsmRMt6NBWqswaposNYSf3Mk4Cx2h0RExJtqQftItHSv1d0tIuIIaB+JBWriW0REWsJqk01gYuFw+O233y8v574CM9LXd/LGGz+W63aRxnby+LEBmHsMvMLQBGDGZqEwb2SwXxyl07iReK9PKQ46h1VVVdVhf7/NGRhJvemx1cleVVXVaMARctUFRkSbpIoGHFLtj6oq+RIAAACAvJuVlCkkZVNPmWKBvR5HoMOlfbDI1dASCp5IrVFKvmWpbfBKaHAkeysAAAAAkEfmucn44GC3hLqtin5tU8ugSLxmr6zUkvVjAAAAADB7ZmGWqajUIZ6e3ul81BtR01BrBwAAAMBQs5EyuRpaxLN3qjf+Li2tFs9xntEEAAAAwERm5blMtqawt9tt1T8uqdc30SNrLa6dXmm2J55yK5HWtNs/jKd7cHCakQIAAADAeGbpUba2RlUNr3VblYTjlRNX2VU0RgMOjy3+iZ71Qdck7iFhqW3wiseuKBOlZAAAAAAwZbN4+wdbk6o2ZdncmHoSVOajbC21QbV2/I9kf9k442gxBz75yU/+13/9wugo5r2LF2Nr1uR8xIqxnTx+bADmHgOvMDQBmLFZmmUCsli9evXQ0C9ef/0/jQ5kHnv99f8cGvrF6tWrc+1gYCdPGBuAucfAy9AEYOYUNW3GBph1P/xh13//91mjo5iv/uqvVn7jGzUT7mZIJ08yNgBzbyEPvAxNAGbOjCnTmTNnRGTNmjVGB4IFh2uPHgCQX4wqAAqAeR5lm3L58mWjQ8ACxbVHDwDIL0YVAAWAtUwAAAAAkBMpEwAAAADkRMoEAAAAADmZ8fYPWt3z0qVLjQ4ECw7XHj0AIL8YVQAUADOmTAAAAABgEhTmAQAAAEBOpEwAAAAAkBMpEwAAAADkZMaU6cyZM9rDwoE5xrVHDwDIL0YVAAVgkdEBZMGTwmEUrj16AEB+MaoAKABmnGUCAAAAAJMgZQIAAACAnEiZAAAAACAnMz7KlieFwyhce/QAgPxiVAFQAMw4y7R06dKcY2uvT6kJxKbfdsSnOAMj0/98ZjBxeWsz1umcwQnGAjWKs3MG3TNO09MMLBaoURRF8fXqN0Z8mVvyqtenKL7ItD463rW3MNADAPKLUQVAATBjyjQ/9PoUm4RVTYc8NZNELj9inXXBqmiw1mJ0IFl4bNPMYaajojEa6Le3zt0BAQAAUMDMeJPxeSFy3OMIRG3xVxZXkysvzVpqg2rtNCM64CprUGcrX5pBYOJo8Uqzx95aqTbZJt47Hyy1DV6lJ9Jkm6PjAQAAoHDN81mmVGmcoqTNKsTrwcarmuv1KUq8jC3Sqv+4vmxMK+SLJA+jLycLHezJPrOUrWAv1ulUWiOR1kQjGcVjiZeZ9W/JpnQbY53OZDi6Fno8LZW2sR/Ud4shgYnIyu0dAYc0t+UoX0x1r66qMOJTnIHegDN1lNS/qf5fIcdBbZUtnp7Zq/0DAADAgmHGlGmyTwrv9Sm2fv+wVhoX9Z+yJ9KDWKDG6l6bKJqLlLmLx2RNic9Ooowt5C7uqYw35fXY4k3ZmsLebrd17JoZfVSRMnexbodme896VVXVxgqRikqvJL/TxwJ7PY7A9owpkVinM9XUXtF2jnU6ra4y7dyigX57ImOJDfY7VpbGPzkScCY/uH4wfu4GBaax1Hb4q0PunVnKFyOtqe4Nuep0/1Ih917pUFVV1bq6TvZqjTuSZX7jHLR0pcNzfMq1eTylnh4AkF+MKgAKgBlTpsuXL0/iYeHat/kOV5H20uLa63c090REpPeAu9sbTtaAVTSGW0LBE7rv6iMBp83jjQQTn52AN9IYb6tiu7862ZStUY36qz32tJmW9KgqKr3SP5jMAar92yuSrdoqWyT+nX6kJ9jtcN6ekbzFeg6GUkEWuVwVIhI54Aol47Hc7nR0Dw6KiMjg2VBZqb6FUPy4FS5XkZGBJVhce/2ObnfdmLtT2JqS3VvpTX/Lu9NlSYQkLQ3aES23Ox3x98c7qKW0TKZuctdeIaMHAOQXowqAAmDGlGny0pMEkWQaUF1amv5G6Gzyu3TIbXOHWsKNFTI5jtJUZmUpXat/y+LqUlU16pe06aaQy5ooFbN7kqmLiKxNC9d2bzzHi50IhhL5gM7gYLf+0CkeW6L5YndIn/kkFbmCEa+2m/4GegYHVuTqCDjS55FEtKrIrFFJ9qOIiOgan7g3AAAAgBmY3ylT/2DGlEVZ/Et25hSHpIrWxOEfDnub7dO6GXds8NTYPM3i6grrJ20cgaiqkzM3K6p0Vnt6emM9B0Pe9VnvUxDKmgB4I/rm47M9pSsdab1R0aiqqjrsF5c1ufLHkMD0EuV5bf3JTb0+e7M3UUMZ9mZ+YmK5Dhob7B/3cwAAAMCkzN+UyeLaqV/6EgvsdIu26qZiu7/ak7rHdK/P3uxtSFuzZGsc9ovLmsyaSlc6RCvqE4l1tnnSDpRagRPrrHN3eysrREQirbr1Ub09nni2ZqmscoRcBxLHjvjGe5aRpbLK4dlbF0y0mc62XbdoR0YCgV6JV83tTbQ5EnAmTtNSWpaaSev1xdOkokpndepYhgSW0bJrr9/RHQple29Mz09ovIMOns2V7wEAAABTYMaUac2aNWvWrJl4v4pGNVLmLtaqsqy6RxJZXF1R/yl7vF7LJmG1MfO7c5ErOOwXl1W7Y4SltiO+KklR6sSZPtfh8O+UOu0YrrJkU7amDtmZKAmz9fuHEytqaoPRQH/i2D2VXa5x7i9hud3p6A7JmPsryNimdoqWvdia1PBatzWxsSO1ZKvSm8j6pGJ76d54t7jXxksQDQssQ5GrI+BIvaxoDLfk6vmJ5T5opKd5nLq+nCZ77RUuegBAfjGqACgAiqqqRsdgZhGf0lY6PNkbRRgr1umskw5zPsp2jsU6ndazDWqT7Ze//OWnPvUpo8MBAADAPGbGWSZMj6W2w3nQOq01WoWl12d1lWm3TKyqqnI6nT/+8Y+NjgkAAADzFbNM45tPs0wYy2q1ish11113zTXX/O3f/m1NTQ2TTgAAAJgSUiYUMi1l0lx77bWqqt56663bt2//2te+ZmBUAAAAmEfMmDKdOXPmvffeW7VqldGBYN7Luub4z//8z6+55hqHw7Fp06bPfvaz77zzTvKtX/ziFyLy6U9/Wr//ihUrZjtO8zhz5ozk6DcAmAZGFQAFYJHRAWRx+fLlH/7wh8eOHTM6EMx711xzzZ/+9KeMje+9956IPPXUU//yL//yrW99a8+ePR/5yEdytfC73/0uGo3ObpRmcvnyZaNDAFBQGFUAFAAzpkwi8o1vfGPfvn1GR4ECp6qqoih79uw5d+5crn30pX0AAABYgLhjHhYuRVGMDgEAAABmR8oEAAAAADmZsTCPRaKAUfjtA5BfjCoACoAZU6alS5caHQKwQPHbByC/GFUAFAAK8wAAAAAgJ1ImAAAAAMiJlAkAAAAAcjJjynTmzBntYeEA5hi/fQDyi1EFQAEw4+0feFI4YBR++wDkF6MKgAJgxlkmAAAAADAJUiYAAAAAyImUCQAAAAByMmPKtGbNmnn7sPBYoEZxdsb0myKtyS2xQI2i4wyMpPbyKYqvd26DBcaYz799AMyIUQVAATBjyrR06dLZfVj4SMCZlq7MKUcgqqqqqqrRgLiLfRFjogCym/XfPgALDKMKgAJgxpRpgbDUNnilf9CgzA0AAADAZBRWytTrU2oCkU6noiRq4Xp9mVVwvT6l2B2SkLtYUWoCMZFIq6K0Jid7dAVyma1FfIozMBJJtMgEEQAAAFD4CitlEpFud5t0qKoarLVIr0+x9fuHVVVV1UhZvAquolEd9jvE4R9W1S6XZfKtiYiE3MU9laqqqlF/tcfeOqOkKdJq91Q7K4tm0gYAAACA2WXGlGlmTwr3NsTTm1hgr8cR6HBpOUlF5bSq4JKtJV5HGm0iIhbXTq+cGoxl/9R4Qi6rNkvVtjI6cc4GzK2Z/fYBQCZGFQAFwIwp0+XLl6f/sPDq0lLdq2R+oih2j4SmnDKltybiKJ3xpFD89g8Rb8hVZ9QtKIBcZvTbBwBjMKoAKABmTJnyKHl7Ok1jxWwf0FK6VkJnB3VbYoOnpKx0zGRSRWO4JeTeGZjGPBUAAACAOVPAKZOlssoRch1IrDeK+Gqy5yelKx3S3KPtFuts88zsqLb1Xmm2J5+wFOusc3d7K7OlaramsLfbfYBnMQEAAAAmVsApk1hqg9FAvz1emNdTmVw4VORqaEndMc9S2+Gv9mi71YnTO8OjVjSqEa/HFj+q1VUWVrXlT2PZtgccHpthT4gCAAAAMCFFVVWjY8ikFT2P/+S7Dz744EMf+tBcRYRCZrVao9Ho9N4tPJP57QOAyWNUAVAAFhkdQBbjD6yvv/76nj17fvOb3wSDwTkLCVgg+FoDIL8YVQAUADOmTFl98MEHXV1dTzzxxLlz565evdra2mp0RAAAAAAK3zxImV5//XW/39/V1aUoyu9+97tFixY99thjX//6142OCwAAAEDhM2/KdPXq1WAw+MQTT5w/f/7999/XNi5atKijo4N8CQAAAMDcMOMd87QnhVdXV3/7299+4403kvnStdde+/DDD58/f3716tXt7e0i0t7ezs/8PMOfRaS0tLS4uNhqtRYXF5emy+eVPR9ov31GRwGgcDCqACgAZrxjXjgcFpFrrrnmpz/96VNPPfXHP/7x3XffVVVVUZTFixf/67/+6xe+8IU/+7M/u/baa3//+9//7//+Lz/z80x+Hh0dXbx48dWrV3//+9+/8cYbixYtKi8v11+QxcXFBv0qGED77bPb7UYHAqBAMKoAKADmTZmSw+vzzz//z//8z5FIRESuXr26ePHizs5OBl/MBv7XTg8AyC9GFQAFwIyFeRm++tWvPvPMMydOnKivr//kJz/5oQ996Bvf+MZPf/pTo+MCAAAAUPjmQcqkKSkpaWhoOH369He/+91Vq1b5fD6jIwIAAABQ+MxYmDeZJ4UPDQ2VlJTMVURYKHhKPT0AIL8YVQAUADOmTAAAAABgEvOmMA8AAAAA5h4pEwAAAADkRMoEAAAAADmZMWXiSeEwCtcePQAgvxhVABSARUYHkIV2dx1g7nHt0QMA8otRBUABMOMsEwAAAACYBCkTAAAAAOREygQAAAAAOZnxUbY8KRxG4dqjBwDkF6MKgAJgxpQJAAAAAEyCwjwAAAAAyImUCQAAAAByImUCAAAAgJzMmDLxpHAYhWuPHgCQX4wqAArAIqMDyIInhcMoXHv0AID8YlQBUADMOMsEAAAAACZBygQAAAAAOZEyAQAAAEBOZnyULU8Kh1G49ugBAPnFqAKgAJgxZQIAAAAAk6AwDwAAAAByImUCAAAAgJxImQAAAAAgJzOmTDwpHEbh2qMHAOQXowqAArDI6ACy4EnhMArXHj0AIL8YVQAUADPOMgEAAACASZAyAQAAAEBOpEwAAAAAkJMZH2XLk8JhFK49egBAfjGqACgAZkyZAAAAAMAkKMwDAAAAgJxImQAAAAAgJ1ImAAAAAMjJjCnTLD8pPOJT9HyRWTvSdPQmo3MGRvLVaMSnKL7eaX88FqhRnJ2xqR2yVVFaZ6drZ7OLZuHaiwVqZtL5Or2+ObhcZ/m3D8CCw6gCoACYMWW6fPlyXh8WniVh8EZUTbjFY68JTC0bmLpYp1OZzFF6fYpNwvHQOuSpWQ9sMmKddcGqaLDWYnQgIjLrXZTvay+vKhqjgX77LCWiCabuAQDzEKMKgAKwyOgADGa71+8oHhwUMUNCEDnucQSitvgri6vJlaeGbY3Tvy9i5ICrrEGdcvfYmmblVoyz3UXhcJ7amx2W2gav0hNpstkm3hcAAAD5YcZZpvHFOp3xsqyaQKTTmVb9NbZkayTgVOweEY9tcjV4WYu+en3xY2lvdMZkJJAIIq3NVGxKqpIt0qpYXSHpdlt1G3NVl4UO9mSfNpkosERUundTLzPn2SKtmUGmB687qd4eT0tl4gt6ejtpdWIRn+IM9AaciqLNp2UtzIt1OlMfGQk4tdaSP4hoZWxKayT7xpl3UWaR5Q5AUwAAIABJREFUYfLlmKnIZGu66cHsXZQua99m3SFt4jF5uFSnxQI1Y68QW2WLpycvZX4AAACYnPmWMvX6rC7xD6uqqqp7pc0V0r+l2Prjb0XK3MW+iIgUuYJq2BuvxGsc87f5WGCnO5RMCbK2oOl2t0mHqqpqxBtyWZWd2ouov9qTLJSKdTqtrrJEzVi4zGXVvjTbmtRowCHV/qiqxsvbchzI1hT2drutY7+OTyKwYK1Fiiqd1aHgiUSq9pQ71NLgKhpzyjWK/ZQ/Gq9s64mMCT4a6E8WK8YG+x0rSyf3bxNy75UOVVW7XLnmpCy1wXCL1mOxwE63BKKNFSJFrmDE67H5IiKxzjq3+KNNtuwbZ95FYqmscqSSrt4D7m5vw5iaw1inM9XaXtFSlFxdNGHfZsTZsz5+hXi73XVaWjUScCYPt35QS5AirVb32nC8pROplkpXOjzHzbX+DgAAoMCp5nPp0qVLly5lfSvcIo5AVP9SWuJfYv3V+rfCXnHEv4OmUqbUyyTd9twtRLwi3rCapbVowJEIIOMoqhrxamlSfLfEz+OGGn9XRCa1f1pgGQfSx6P7edjvSP9IluB1+4RbMrsu9TJ3t6hp/zTphv0OcfgDXt0JJs/RP7YrxmycaRfFAxjOCDIe/6VLly5detNfnf5POW4Xpbc8tm+j2VqLHz0e87DfIZn7hFskvYsSIt7sHZsn4/z2AcA0MKoAKABmnGVaunTp0qVLs70TGzwlZaWpOYHSlQ792yGXNVHzZPdIaDD37dS0r6fRgEObx5i4herSnFMtpwYTsw2O0owpne7BwRwfyh2qxdWlqmrUL2lzKZMMzFLb4O0O9oyI9PZ4qv3bK8YceGQwlONcPLbEEYrdIekfp/dyGHP6WRW5OgLidvX79+onoyyuvX5xufsDHbppsawbZYZdJEWuhhZtLi7S0+zw35s29bh06dKlSy8Ndmc/lwm6KHffpqSqBxV7s4TODmohBSNerfFkOZ+tSTvB8YoAZ0Pu3z4AmA5GFQAFwIwp0/j6B1P1UINnQ/q39BNQqqo2jk0Y0llqO/SVddNoId2YJC33F+iJDmRxdYW9ui/lkw7MVtkSCp6IRY57HFWV2QvkciRy6bMcQS1LKV3p0Hd4PkQOuMTbIu6daYVtkafc0uIVV51+ZVfWjQnT7iKxrfeGDvbEens81c7K7Gle9nw7axelyZ0kayfks3l0d2vUvVPRqKqqOuwXlzWxpErLDDNv6hgb7B/vCAAAAMi3+ZUyWSqrHCHXgXiK0+uzN+d4SyK+Sd063OLa63c0twVGpt1Ckm172pxVxGfzeHdmXdWT80CRVv19C3o8UlZaNOXAbOu9oYN1bc0O5+3ZDl6xPX39VSAiImKrbBHP3kSzIwFnYgdLaVl8JkREpLS0WhILaWKBvZ7cUeQSC9TY+wMdjU0dfkms5BGJdTrtp/wdTY0dgVQqlXVjXrpIKiq93cG6vbmyyvR/ypFAoFdyd5Hu1hTZ+zaHkUBb8urt9cXTpKJKZ3Wio1rjx7Kt11eSyuDZkHc9N8wDAACYQ1Ms5DNe6m/zLWHdUiJV1VbyxI1Z4ZPamG3VTWL/7C1E9Atvxqxl0i040X08Y0YivoAqOROSI9TEKh0RSV/AM4nA0o+Vttwl45RTR8lcGKZJazPs1R9x2O9IhhfIWMuUFrB+LVNy0Y6+q9WIN95LyR/0wWfdmLcuSo8kSxfpWtN9PFsXRf3V+t4e27fpa5ki3mQL/pZsJ5VsKrln2mlm9jMAAABmm6LOyuNzZkR7TPiaNWsm3DPSqrStNM1TVgtUrNNZJx0z6OSIT2krHc5WxmY+k7/2DBHrdFrPNqhNk51leuGFF9rb27/97W9/6UtfmuRHTN4DAOYdRhUABcCMhXnjPSm816d/tJE9V/kZ8sdS2+E8aM31lKGJjQz251wyZDqmfkp9r8/qKgtPOl8SkVdffbWvr+++++677bbbHn/88cmcmql7AMA8xKgCoAAsMjqAKapobDiuKIr2wuGfJ3MX85zF1aW6pv3pIlewK4/BLGAVjVOdEr722mtF5L333nvvvfceeeSRf/zHf9y4ceO99947+UknAAAAzLeUScTWpKpNRgcBzDfvv/++iPz4xz8+ceLEkiVLtm/fXlNTw51/AQAAJmTGtUzhcPiHP/yhVv0MzCUtr/jYxz5mdCD5ceHChYsXLyanZfW0tYw333zz0qVL//u//zu5/U9/+pOIXHNNqmT3r/7qr0Kh0NgWAGAywuGwiNjtdqMDAYDpM2PKdPny5TfeeOMTn/iE0YFgwXn33XdFpJCuvbNnz+Z667e//e3nP//573znO3a7/Stf+UrWfV544YVwOEzKBGDatIVMzGkDmNfMWJi3dOnSL37xi0ZHARSCtWvXzmS3F154Ia/hAFhwSJYAFAAz3jEPAAAAAEyClAkAAAAAciJlAgAAAICczJgynTlzhtvlwRBcewCQX4yrAAqAGW//wGPCYRSuPQDIL8ZVAAXAjCkTAExGZ+czZ8/+wugoCt/KlZ+urb3b6CgAADAMKROAecnj+Y7dXvm3f7vR6EAK36lTP/d4vuP1/qPRgQAAYAwzrmUCgPG99dZbK1asXLv2C0YHsiCsXfuFFStWvvXWW0YHAgCAMcw4y7RmzRqjQ8ACxbU3X/z6179etsxidBQLyLJlll//+tdGR4F5iXEVQAEwY8rEk8JhFK49AMgvxlUABYDCPAAAAADIiZQJAAAAAHIiZQIAAACAnMyYMvGkcBiFaw8A8otxFUABMOPtH3hSOIzCtQcA+cW4CqAAmHGWCYD5xAI1iq83FqhRFEVRFGdgRP9uxKfEOTtjyf0TP0ukVVFqAvEXvb7Uz2YW7X6gZEmJ9t++k9Nq4sKhB5c88OyF8XeIH6KkrW+ageZysr1k/KMDAIBJIWUCMFkeW53sVVVVDbeE3DuTaU/Ep9j7A1FVVVU1XOay+npFxFJZ5QidHRQRkdjgKYdDgj0jIiKR4x5HVaXZn6kU7X7gth2fO3RlaOjK0NCVvk+1t/fH37n47D0lD3ZfzMMxLhx6cPVDNx/TDjH0yorvTzMxAwAAs8uMhXkAzMkR6HAViYjY7vU7igcHRSwisc42T7U/WqslQbbKFmkbjEmFxXK70+HqiTTZbCM9wbUNDWLvGREpig2ecjjvNXvG1Ne14+iuY4+XxV8u2/p0fd6P0f/0Q0c8Bx9bF39prX784fweYF390JX8tggAwMJkxlmmNWvW8LBwGIJrb3xlpTlSnW63NVGYZ2+W+ORSUWmZeHp6JXYiWLbeZlvv9RyPyEhPsLustGi2Irz47D0lJfccimqvLhx6cIk2I9S3T1/5drI9UWuXa7uIyJvnx0wlXTj04JLy+sNyZEd5cs9o9wOpI8YbSU5Jafr2JarvMqenXhuOSg4n2xNlgfriOm2Oq+/ZexLlghcOPZhWN3jx2XsSZzQmEl2poX77Ra21WSkOBBhXARQCM6ZMS5cu5WHhMATX3jRV+7WyvLgmm4hoM079g7HBs1JaJFJR6T01GBsZDLVU2mYtkGVb2x7ddPihrpMiyWmc6mUi5Q8f2y3e7z97QUQuPtv+yKb9fQ+vk3G21+zfeGRHeWaGs3zbY1f62rfIpv19Q1eGHl435vhZHK1fHb5dK/B761HZUZ5Mb8rueXTT4Ydu06dbCdHuB0o2SLws8Njn6lenZT5Hdnxf2obiASz/4le36LK7Cy8/f3hj+z3lY+NILzW0D8dPrW/fkvLnv96n1R+2v1aVn5pDIIVxFUABMGPKBGAesdzudHS7D/TGX0ZaU3eGsK33hg7WtZ1yVhaJSGmpBOv2erzrZy9jEpHl25r3b9zTfih64dB+7+5DDYnkYV39Ic/R+qf75OQz9fJoc/Wy8bdbqx9/Zf/GIzvKZ34HhV3H6ssSse3wyJ6XEjM5y7c99tajmw4/dFvm7JNWFpj41Lq727c8ckK/zMnzza3Lky+Wrfv6xiM/elnLu6IvHT2yZeO65TJGeptSvrV6mYhEu7+/Z0vyrJdtrd+dbAoAACSwlgnAzBS5gsPiLFYUERHxRtTGZN1dRaW329Mf6LCIiFgqq8Tt8jZ0zXI81mpv+4/Kb1stm/b3lem2lzUc3LWkqkRk17Eh6yS2W6sfH6q++Ow95fWrS+o9B4caskzdTMLGT63Qtblio/xoOCrl8QMt3/bYlW3R7gdu21FesmP3oSv1ZSJyYfhNkSMbSvboWtn09YuyLp7ObVpRkna+d2zctOPoyQvbti6/ePJHRzd93as/i7iT4T2y+9CYabHo+aNy+OhtSx7SbdsdFcnSAgAACxcpE4DJsLi61NSrIldQ90qKXEHVle1TtkY1tZ+lNqjWTnykN99888knn/y7v/u7T33qU9MMVnPzimXZNqflMBNtX7b16aGtJ9tLNlTtu2OSlXhTZq1+fKi6b9+Sqm1t9kRitrH9rce3Zpksymb5F7+65aHnX7q49Y6Xnz+88attWc86t+lngwAALBBmLMzjSeEwCteeGTz55JNPP/30nXfe6XA4fvzjH0/589FuT708+sqx3Xs2pC0B6m+r2uM5+Mp+qW9IWz6Ua3vKurvbt+Q8nHXF5+Rw6i4O0fOn098/+svzutjOH5VbirPN4ZTX7N8Y/3F58c1y9PmXJr+mKF6b1//S0SNpNXs6K4o3yenhMRWG1hUbxRvuz/YJIE8YVwEUADOmTJcvX+Zh4TAE154Z3HjjjSJy9erVSCTyrW996zOf+cz/+3//75e//OXkPn3hUMuOo7vqt1nX3d2+5ZFturvhbfNubL+n3Fr9zV2HH2pJrh3Kvr1vn/6eciefqT+cNgd15PxQ6sWK4k2SWGt04VDLjqMZEaUyt8SxtFf9bfo73fV17TiaqLjTbj7hSayhuvjsPe3jZzXWOzZuOjx84vzRXXfkmC9avm2H52jqNhIXDu3rvigi1upv7pK0XuL2D8g3xlUABYDCPADm9e6774rId7/73e9+97vl5eX333//1772tXH279u3Ovmwo2Vb2x59fnXVgyv6Hrvj5Qc3PLJpf9/W5aLdJa9kQ/m+FUMPrziUffu68oevyL4lJdvize4+dEX3jKb63fUbqkq8suuYds+6bc37j94WX3q0+9Cx3Uc26EPa2H6seP+SkiPaz7pyu7KGIWkrKUnsvOvYkP4ZTYfOl2xbXVKf+JR+UVYWy7ft8JRs8+4+lPtBTGUNQ4ekZNuSR0REtjz6ytNa/V75w289+ubqqhKviGhFelOs6wMAoPApqqpOvNfcCofDImK3240OBAvOArz2HA7HRz/60eRLVVVPn06rLPvggw9stlm9x12mgYGBgYGBRYsy/6Cj3cBcRO644476+vq3336/vHx2FhdhjL6+kzfe+LEF9auBfFmA4yqAwsMsE7Cg3XLLLfqXv/rVr0pKSq6//nr9xq1bt85tUNLXl/ORqr/+9a83bNiQ610AAIC8M+Msk1b0zJPvMPe49uZLD4TDYWaZ5hKzTJi2+TKqAMA4zDjLxMAKo3Dt0QMA8otRBUABMOMd8wAAAADAJEiZAAAAACAnUiYAAAAAyMmMKRNPCodRuPboAQD5xagCoACYMWXiSeEwCtfefOmBVatWnT7db3QUC8jp0/2rVq0yOgrMS/NlVAGAcZjxjnkAML4bbrjhL/7ixn/+58c+97m/NjqWwnf69H/+5V8uv+GGG4wOBAAAY5AyAZiX7rvv3kuXLg0MDBgdyBQMDw+LSHFxsdGBTM2dd34z4+nGAAAsKKRMAOar66+/vqKiwugopuBPf/qTiMyvmAEAgBlTpjVr1hgdAhYorj16AEB+MaoAKABmTJl4UjiMwrVHDwDIL0YVAAXAjHfMAwAAAACTMOMsEwAUJO7TDQDAfKSoqmp0DAAAAABgUmYszONJ4TAK1x49ACC/GFUAFAAzFubxmHAYhWuPHgCQX4wqAAqAGWeZAAAAAMAkSJkAYI4MDAwMDAwYHQUAAJgaUiYAmCOjo6Ojo6NGRwEAAKbGjGuZeFI4jMK1Rw8AyC9GFQAFwIwpE08Kh1G49ugBAPnFqAKgAFCYBwAAAAA5mXGWCQAK0qpVq4wOAQAATBmzTMgU63QqNYFYtrcirYqiKBnvxjqdyricnWMa6/UprZHMLTkOOn6oWRqfxIkAhrjhhhtuuOEGo6MAAABTY8aUaaE8KbzXl8wpAiMzaGck4JxRC7FATVpWY6kNqjsHrTWBWDJHSmhbGVVVVe1yWdKbcASiag7RgGNSUVRs94v7QG/Ws9PJSLTG0euzukLS7bbqcrcsvdTrUxRfstGFcu3lRg8AyC9GFQAFwIwp0+XLl2fvYeGR1ql87Z49vT7FJuF4WtEhTxk2GRLrrAtWRYO16UlQRWMyL/JGUvlP5m7ToKVANo802xVF8XUmMyKru1s8tvgLXzJ3KnIFk4ePeCU9i7O6QiGXNUsuNBJwHq/UJ27+anEEOlxFY+KpaIwG+u2JS2JWr715gR4AkF+MKgAKgBlTpoUgctzjCGy3xV9ZXE2Z8zZTUOQKqsEsycDkAjngKmuYeSKktZU+JZU9NS1yBbWpp5awqqqNt4tU+6OJ+ajkbFVjRapVX6K4LjbY71hZamtKm8JyBKJq+unHOp1KsTvUbNeFYnV3S8hlzczHRETEUtvgbe4xQRoNAAAAMyqslKnXp9QEIp3OxPqZSKr0rTOmVaDZmyU+v9Eb8em/PacKtCI+xRnoDTgVRakJvN7pVFojyeU6GStnYp3OVFnXSMCpKL4fBZypZmOBGkXZ/Y+ZW1ojIhI62JNlZmlstZ7+pDq+m1aDp5Xk/UxfmBcL1GRM1KS2ZMlhens8LZW2zK1pkjM/Sb6x5XMJqSmpiDd3k7GegyE51ROZVDGhbXtVsK4zJiKDZ0NlpZbx1y9Jr6/ubJkjkYbFI2kJJ1+FW7IcorLF05P7pIB8GRgYGBgYMDoKAAAwNYWVMolIt7tNOlRVDdYO+hR7f3zWIlzmsvp6La4uNdwi8fmNinFaCbn3Soeqql2uG0Wk2V4nHdqX75CrTl8DZqkNhls89taISCyw0y2BaOPXXcGI12PzRURinXVu8Ucf+U7mliabrSns7XZbdatoRLRqvX7/sPZFv8xdnHg3eVJ1Dmd1KHginjBEnnKHWhpc1uTnIz7F6l4bTw8qBwMxiQVqklui/lP2zJRvsN+xsjTt1BNrhxJ5kSMeT6rCzVE6zRmt5CF6gt0i3R77zkmVI1pqO5wHrb7e2OApb2WF9rIu59qtisbgvaVpS5gSRYAae3OWD5WudHiOM8+EWTc6Ojo6Omp0FAAAYGrMmDKtWbNmBg8L92plZrHONk+1vyNecmarbJH+wSksF/Lu1FXKJdup2O6vDg2mf1m33et3NLcFOg+4Rb+bp60zcMAl/r0uS9YtYmtUo/5qj11J3oAuFtjrSa23qaj0Sn/iWN5E7ZylssqRmJ6K9DSLd71uiqi3x1PtjzbFt9hqXZbeA+5ubzi+xVJZ5QidHdQHr83bpJ1PkSuYmoqJDZ4SOeFLTnnFOuuCVdlWBE1F7ESwrMUrLeHwWveBEyIiPa36hUmZd+QTsbj2+vttVreUlmovd5a5n8qd4SSWP8XvPKGfcVLV6HB0bLZsKS3TfpjZtVcI6AEA+cWoAqAAmDFlWrp06fQfFl5dmpo00U012JslI1sYV/pEytrS8db6FLk6AuJ29SdyIdG+4ovL3Z+638DYLSJicXWpqhr1S2q6KbneRlHsHkmkZ7qTstQ2eLuDPSPxBGm77tt/bLA/W6ie5AyL1RWSU1NJHEd6gt1lpbWNqtowWKwoimI92zD+HSBSVXw2T45dIgdcZZXrRURsTWrj7SJrS11N6WuZxtyRT4pcDS26f4iK7f5TOVYfpSoblTrpUNXkbF68QLFu53jLlmZ07RUEegBAfjGqACgAZkyZ8iZ9ekFtGn/NzrRFDrjE2yJuXZlZ5Cm3tHhFV8U3dkuCxdUVTk4oZdytO1v1oK2yJRQ8EYsc9ziqKjNTiywZkTesbzE9Gyld6Rhn8i3ylFu0e1SMDPZrm5rt4z/paOK1TCODkrrvhcjIYCh3aym9Pvspr/dUW6L3LK6uxuz/nBWNyTtDhFxWRempVNVwi8eu1AXF4R9Wg12usR+MJc4PAAAAyFCwKZPldqejO/Wcn0jr2GfylJZWS2IFSyywN9esyPhigRp7f6CjsanDL27tLgWxTqf9lL+jqbEjEM+jxm5Ji6e3xyNlpUWWyipHyHUgMQeSulNcBtt6b+hgXVuzw3l7WsZkqW3wdsdjEJFIZyBWUekVT1tiS6zTmXmzuNKy3JNvkZ5mr1PqFEVRdmpruVRVVcNr3dZcgTXpcryKxuw5apGrUTdPlWUxVbZIfDaPd2dj484y94TLnxJrsRLLz8SuKD0r/Y5qZ8deZzDHxwfPhtJKHIHZsWrVqlWrVhkdBQAAmCK1kES8aTNLw/7kU1RTsx+Jjd6IfgeHP+BNTMiEvbp7HiRvh6298lenPaco3CKpaZyIV0S8+726w4W9IrLjm5lbWsJaU5I8uv5wiZBTzWZMl6UaSZ5RsoVwcnIn7YjaYbI8cDbszZiG0h5h1OJ1ZG7PacKH1WY5bvwudmn9qb/JeGY8ie3hlrTbUeT4iJrqXq2XEn0YDTjGdKaa8S8OAAAA6JkxZXrjjTfeeOONcXb4zW9+c/To0TmLp7BlZh3DfoeWZugSzrFJ0OTyltzvailTejY43p5jN2YklplvOfzDacWB6RWDmfEnDzHhtVfw6AEA+cWoAqAAKKqqjj9FMPfC4bCI2O32sW/97Gc/e/rpp//t3/7thhtu+NnPfnbttdfOeXSFJxaosQarouPf1yHPen3K8croyrYDpcFG8Y29V4Q3Mv5d4PMaiU3Canxl1DjX3gJBDwDIL0YVAAVgkdEBTMr777/f1dX15JNPvv322++///7nPve5w4cPky/licXVpbrm+JgVjWqFiAQbRUQaVbVxjo+fFonp/mgAAAAAEzF7yvSzn/3sBz/4QTAYvPbaa3/7298uXrz4lltuCYVC5EsA5p2BgQER4Q4QAADMLx/6h3/4B6NjyDQ8PCwi3/ve95qbm3/wgx/09/f/6U9/+uMf/7ho0aK1a9e2trZqs/w33njj6dOnX3zxRX7m53z9fOnSpaVLl77zzjsmiWfuf37ppZd+/vOfX3/99SaJp5B+fvHFF1955ZXrrruuuLh4/DEQKCTa/9O57AHMa2a8ybj2pPBXX331l7/85QcffJDcfs0113zmM5+5cOFCJBLRhuDh4WF+5uc8/rx48eI1a9aYJ565/3nx4sX/8z//Y554Cunn06dPDw5O/oHaQIHQ/p9udBQAMCNmvP1D0ttvv60tYfrtb3/7zjvviMjHP/5xp9P5T//0T0aHBgBTxjp4AADmIzPOMiXdeOONf//3f9/f3/+9733vK1/5yjXXXCMiXV1d3/72t40ODQAAAMCCYOpZpgzJSadLly594QtfOHTokNERAcAUjI6OisgNN9xgdCAAAGAK5lPKlHT8+PGf//znu3fvNjoQAAAAAAXOjCnTmTNnRITVoph7XHv0AID8YlQBUADM+Fymy5cvGx0CFiiuPXoAQH4xqgAoAKa+/QMAAAAAGIuUCQDmyMDAwMDAgNFRAACAqSFlAoA5Mjo6qt00DwAAzCNmXMvEIlEYhWuPHgCQX4wqAAqAGVOmpUuXGh0CFiiuPXoAQH4xqgAoABTmAQAAAEBOZpxlAoCCtGrVKqNDAAAAU2bGR9kCAAAAgEmYsTDvzJkz2sPCgTnGtUcPAMgvRhUABcCMhXk8KRxG4dqjBwDkF6MKgAJgxlkmAAAAADAJUiYAmCMDAwMDAwNGRwEAAKaGlAkA5sjo6Ojo6KjRUQAAgKkx41omnhQOo3Dt0QMA8otRBUABMGPKxJPCYRSuPXoAQH4xqgAoABTmAQAAAEBOZpxlAoCCtGrVKqNDAAAAU6aoqmp0DAAAAABgUmYszONJ4TAK1x49ACC/GFUAFAAzFubxpHAYhWuPHgCQX4wqAAqAGWeZAAAAAMAkSJkAYI4MDAwMDAwYHQUAAJgaUiYAmCOjo6Ojo6NGRwEAAKbGjGuZeFI4jMK1Rw8AyC9GFQAFwIwpE08Kh1G49ugBAPnFqAKgAFCYBwAAAAA5mXGWCQAK0qpVq4wOAQAATJmiqqrRMQAAAACASZmxMI8nhcMoXHv0AID8YlQBUADMWJjHk8JhFK49egBAfjGqACgAZpxlAgAAAACTIGUCgDkyMDAwMDBgdBQAAGBqFmDKFAvUKHGtkSl/uten1ARi47wb5wyMzChKnYhPUXy9M29kaiHFOp3J/tH/POHnAjWKszNnD82WXp+i+Kb+zwnMqdHR0dHRUaOjAAAAU2PGlGnNmjWz9rDwWKDGGqyKqpr1PYlUJB9pSa9PsUk43nSHPJU7sypcsc66YFU0WGuZ6wNXNEYD/fZp5MDpZvPamx/oAQD5xagCoACY8fYPs/ik8JGeYLe3oSvxhb6isTF/bUeOexyBqC3+yuJqcuWpYVvjvLkRfOSAq6xBnfN8SURELLUNXqUn0mSzTbxvTjylnh4AkF+MKgAKgBlnmXKL+JRU0VekVdFq5JI/iGgFWs7ASPaNIiLi6cmYTRoJOBW7R8RjUxLFXemTTmOLvlIFeGnbQwd7ss8sZS3Y6/UpNYFIp1PRTmok4NS/m3qZOQMWaU20lap/m2S1YcSXrW4w1unMejo5pU4n/XC9PZ6WykTGEgvUKL7eZGDpZYEjgdQh9f2c6BBdn2QJLEfAtsqWMf+4AAAAwMzMr5TJ1jjsF1ddYESk12dv9oa7XBYRW1PUL+66zphIxGfzeCNBV1H2jVLk6gg4PLb0xTZFrqAa9op4I6qqNk48R9Htth6v1Mrvwi0eeyIxszWFvd1u69jdKV6mAAAgAElEQVSso9en2Pr9w6qqqmqkzF2s26Hb3SYdqqoGay1SVOmsDgVPJBLCp9yhlgZXUUZbsUCNYj/lj8aL/3oi8Y1W91qtJDDqP2XPsZQo5C7uqdT2qQ65n0qtU7K6yuIfDvTbx1mpNfZ01Kj/lD215Gmw37GyVL+vx1Yne7WOCrl3JluOBZ6SjvgRHR5blg5RI96Qy6rs1F5E/dUee+vEAZeudHiOs6AJ5rVq1apVq1YZHQUAAJgidb4Jt4i0+P3VWoaTEPGKeP0Bh7SEJ9gY3y4i+haSKVO2lxGviDc89mdVVYf9DnEk8gdVVaP+ahERqfZHdVscgcQrNexN7p/RlKpGA47EB/UB6H4e9jvSPzK2nejY8816RlkOlNa+vh3dzxmnk/aRcIu+D9P3zBp5xva0E0kLTBdAzoDjLWQ5dwAAAGD6zDjLNP6Twm1NYW+z27023Fih21rRGG7xuF1l4SbbBBtFpKJRVVU14s2cbpqk6tLUTEpRaVnaexZXl6qqUb+kTTeFXNZEIZndI6HBkWxNaatxuoM9IyK9PZ5q//YKyTQyGEr/SILHnjiA1RWSU4PZzspRmjlnlfiwLfHhYndI+gcnurFeWWnGaqWcHxmzp0ZXRphxxOxnJyKiP6mpBjx5PKWeHgCQX4wqAAqAGVOmy5cvj/Ow8Fhnm6fF6222p93gbiTQ1uz1tnjS7pmWdWNSRWM04AidHZxRrCOD/VI2JhWxuLrCXt1X+bRpGVVtHJsLxdkqW0LBE7HIcY+jqjL7XRS6B7NFnD6B0+Wa0h0Y0ubr1OCYasBM/ZkZWbwHSlc6xryVRayzzi2JWbhhv2MqoY4fcGywf+qNpRn/2lsI6AEA+cWoAqAAmDFlGk+vz+oqCzc1Nka8ujUwEV+xuyzS2NgU1qVS2TaOBJyp9CnWczCUsfYmobS0WhKrYmKBvZ60N7u1JVIiEgvsdIcSNzyItOpv7dDjiScSlsoqR8h1IBXquIuFbOu9oYN1bc0O5+3Zsp6K7emregIREamo9IqnLTFdFut0pk524jun2ypbxLM3EVJa/2Rlce30hrTlZCJaD0hgu9YDltKyqaagkafcoSl9YNyAB8+GvOtncsM8AAAAINO8SplGAk6bx6F9QdeSh5pATGKBGnuijM22PeDw2JyBkawbRYpcwfU9yRI299pw4glC2j7JO7BZXHv9jmat2K1OqrxpYVT7G6Qu3oL4o4mqP1tTh+xMtG3r9w/H7yRhqQ1GA/2JwrmeyvGngCoqvd2hbDd+0FhcXVH/qXhjdaJla7ZGNVyWqP2rk47cs1hZ2JrU8Fp3/MM7paNpopSjolGNlLmL432Y9hSmikpvc8+Et1+w1Hb4JX7EnpVTnmXKHXCkpzln8SFgBgMDAwMDA0ZHAQAApkZRzffMn3A4LCJ2u93oQDBlsU5nnXQY8Chb7U56ZxvUCVO+cXHt0QNT0tfXV15ePvn96V4sQFz2AAqAGR9ly2PC5y9LbYezxuqU6FxnTVrFpjrTqjyuPXpgSu6+++6PfvSj9913X01NjdVqNTocwIwYVQAUADPOMgHAvKClSR/5yEf+8Ic/fOlLX9q+ffvf/M3fjLM/f24HAGA+MuMsEwDMI7/73e9E5D/+4z/6+/uvvfba7du3M+kEAEAhMeksU2/vBDd6AwDDVVVVjd344Q9/+IMPPvj0pz9dUVHhcDjeeOON5Fu/+c1vROTjH/+4fv/77rtvtuMEAAAzYdJZpp/+9Kcvv/yy0VEAwHiuu+66P/zhD2O3f/jDHz5//vyvfvWrG2+8cc+ePWvXrs3VwqlTp0iZAAAwOTPOMmmPCWfBKOYe1x49kHdWqzUajU7vXaAAMKoAKABmnGXiMeEwCtcePQAgvxhVABSAefUoWwAAAACYW6RMAAAAAJATKRMAAAAA5GTGtUwsEoVRuPboAQD5xagCoACYMWVaunSp0SFggeLaowcA5BejCoACQGEeAAAAAOREygQAAAAAOZEyAQAAAEBOZkyZzpw5oz0sHJhjXHv0AID8YlQBUADMePsHnhQOo3Dt0QMA8otRBUABMOMsEwAg1ul0dsYSryI+xRdJ3yHSqvh6Ey96fc7OmEgsUOMMjKR28dUEYumfkl6f0prRUlqr2kcirYru6PF4UodLbEs/XJZT8PWKjASc6cFnNj4ScKbFGfEpCa2RWKdTyZDcudenjD3BbGFMZrfxTiF92+yctb59Jf3fKBaoURQl+c8dC9QoY6LKEPEpmf+CkVZnYCR13Pj1kzMMAEAKKRMAmF5vT39guy19m60pLDbtu3sssNcTclkVxeruDrmL45mFs7O0ceegtTUivakcRLF5pNmefJXxrTohVnpv1HnQqn/XUttRutcZGIl/fVcUJeNwypikLqGyIyL21LuRnmZvQ60l+XbkKXfZTpdF/4lqf1RV1YhXe+UIRNWkYb9D2zoScNo80u22ZmZU6elEr8/qEv/e9PYnbQ7POnkI6+BOVW2y6XJF6+BOVVXVxgrtxHuC3d7KipwxR1oVRempVNVgrUWfudmaGgaL4z/3tCo969XGCpGRQamqnF7nAMACoprPyy+//PLLLxsdBRYirj16IO8sFsv03o0GHIlUIeqvHjN2J5OKlnD6ng7/cFo74Zb0LRGvtIR17078v4lUxjLsd+g+m3m4ZDIznr8Z03LYm340/3DYm/3sdPEP+x0ijmqHpMWjhlsSPZPcecKTmtAcnXXmv13aiU/qKN5wZrO69yJZ3vJGMi6AzIsnLxhVABQAM6ZMly5dunTpktFRYCHi2qMH8m46KVPaF32vPyNnUFV12O/QJwYpWVKmxPasX6TH7pxIV8aRKw9Jz15UVY0GHN7ImM8md4t4HYFoekakxa/7cp9KmZIbHf6Tfod4w6lgvOFEVPrDaclAltQo4pUJz9GAsx43ZUoa1p37eMLe9H/cROYc9oo+q0z9c4dbJDPsPGFUAVAAzFiYt3TpUh4WDkNw7dEDplDRqKpquEUcgag6XBo86OyotWSu2/n1IauiKIozMKJb+ZNZM5Zc+WNxdSVG/bRZpqCraMxSn273gURhm7aeKtKqKF+uSdW8VTQmPp7+Lb/Jpi2h0dfFefYmW86yHEvOHqjTzi5DemGeiIjYGpMx/3+uoNqolSnGBvtFPHat4FAn1um0N3vDqhosPaBfFxRpVZTjlWrX5Or0EgWNc3TWoi+qzF4wGdjpDmnnm87ZGZORgG7Vl90jaVeCvTnkLlb+UrH3t3gd3W6r4gyMSKyzp18GB+ONO0qLJtMpU8aoAqAAmDFlAoAFL9LTLCGXVXmqNNjlskgssLc/bUHO//lWYu4omUtkM+x3iPS06r5cp69lUmoCUhtUdw5adVmTx+aLSMSnKNaDzobbRUTkk9ui2rzNoP57eWaG5uu1NarR0r26/KHbXdcZi3U6FcUuke2lb6ef5crtwa7SAzmXA8WFXBnrlT6b/KlOOvSnW3k8EZmrLKylVRWN0ZVtiuKL9PoURelZryU5k5PIXefqrOOZWDTgyH7iX7a6u7NMMcX3L3IFVTUecEs4vr0lHJ8+GvY7xPHIsBq8t1Sq/VG1YbBYsR4sbajq7+kVkUhPc9kspUwAUABImQDAfHp7+qsdjkA0LG2BEYl11gWrOipPJO6hNzIYSt890qpk0k2tVDZlLmFKTTdp8y3/f3v3H9xGfSd8/LNAIUCZxrQp0tQ2FQ0N6UOmd/Y9wRINvbok1zROiaXHnlqGzkPT0HK5pDeJmc4g2U9rSzdzg0kbchmmTdO0QyVz9kkJJGlo0nMpuUomNLrmwkMoDacjNifxhBtnjtC7Quk+f+xqtfqx/pHIXtl+v/7IyNJq97Pf/UrZj76/mgL5hpe2SCKa8igeSarqoN9d63B3q/lXXf5Yme5/+jOBJhFx+AdzExWIhJKJBr/Tud+XUdVAk8PxYcknbHq7kDsw6upXJpqDzhuNhIzeaKMRb1vA6K8W63CYZw50dxshBYzEyLHK55Wg51izquYDmx47zlqMXoWjEW9vItEr3q9EQuWamJz+XHUYi/oUpX9pRl09rCiK82yX2u12359xHVOUbbJbjfkl6qtLdw36HVqmPeh3uxpS6ayMDAd7m6ecSgLAgkPKBADVJhne4epqFRFxd8f8Et18tivW4XB0xLrOOi1mly68my87W0BP4c12YU820fMuT1DE1RFL9Jp7l5Uq6v7n7BwqfH0s6tNv5d2B0YjX1NnPPKpHf6bWHxv1xbZph2tw1Yo+D14+wubm3uDwiEhuojkxzTzu6ZGg2xxMPg/RJ52r64yXnL5Fz7eJzfBZ5/afT4EMoz/sX5qJdbik3EAmrZUpO+BT6tJdoxHxO5VjzaqqqvenfYqi1DljSzPqQ4lGvShySZfWrtjU3ODfGz4WDK0mYwIAS9WYMrFSOOxC3aMEqsJY2rXN78r9ldzXGc/d7nt6JOj2RdMTvdtSaStT7gjakJ3h1aoxy4K7W820xpyWzSCl7S36C3qWsk12F3QYS4hbmWg9qFp/zGjIGkunSsYyue+PpHZEsyNhz+nIxiZxdMTyyWHhXA7arA9as9vm/WWmZ1BNPd+maSbPWtLpXKe7TNQrkh7eH29w5V6s+98xfeyTZSuToyOmqgF3rT+mZiKnPVqu2JBUVW1A1zOdr5vmvchEvV59bnH3xmgqeDqy8dLa36aAbxUA80A1pkzj4+MsFg5bUPcogapQ6/eb7l9Nnc00Mb9LvEtdIul0vpWjsAFEa1fJSQ/4wsfKtjL9R7Rd0dbwUUs6rTk6Yqrala5TPtNuWj1WkuH2vemy7S2psGIMLiqeX8EdUNXM0n7F/eyEZ24+o+Iy2d0ac7oLB3RJNrqteHWj9Ol8ocW2NUx4uKmb+bMeS6faXFqe7OiIxValLRZfsh7LpAXapyiKs3OFvlVAwoqiKMea1W53UprVbWltdJTzbJeeg41FN/vj5jk/Ko5vFQDzQDWmTACACWTTKZFfhRVPqk0668LJMmmVaZKDoU7P2a7A6rKtTB/0D6rmYT8ylk4VHModUNW/WZH/O+jud+3Y6Crb3tIQULXlU3PSZws6mDk6Ymryz0tG9ZiMpVMi/3E8VmZx1ZGw0y+hXumsyzV8jYS1NV4LM710eqhwGoOe0laZXM+3saivfYLOhzaedTa6rVNKFi+eCr0mdIs+2Z/WQ6/bLSLuJnfyWFBEQtGIt8fjG8jKSFhviRqNpNyKRZ9PAAApEwDMDfnJxJ3+hi7XqVQ0ExuMqUkpkxPowoeOxySaKZojTp8rwh30LjV6/+WH/ZSmK7npH5LDPaGEGvObExJ9YmtnZ0Gioofq6SnXTlIyqidrDEyq65To+v/cL75VEm1XFLc+wCbudyo7XBk1FujWG76MZEDPl0aMsvGkijKNCTrmaS1Xk8zXN2tn3dBl5F0jezslUm4W8kK5WcWdfvGtcphjMFoO85femBlCVQMd/piq7pbNilsSWhnq3QgnmY4CABYsRVVVu2MolkgkRMTj8dgdCBYc6h4lUHFOpzOTyVzaq5gF2QGfNrOc3YHMW3yrAJgHrrI7gDKWL19udwhYoKh7lAAWGkdHrOp+OJxf+FYBMA9UY8rEMuGwC3WPEgBQWXyrAJgHGMsEAAAAAJZImQBg7hgJK8XTFSTDyqRznSXD+RWWzI8nkp+fYJIJEqYh2TfhOkWTvTusRTISzi9EOxJWpjbrnWkn0y4KkWy0XV/9NtmnKH3RaLte5sk+pTCAZLhwndzsgG/aBWh9Usm+/M6LIilXNwAAlUHKBAAolh3wOff7ckvENg9fep5TOSPDwd5mt0jyWDC/xuusyA5sjrVmtJnEXUu95pkG3atDMpTOry08MhwUie8fNhKe9Nm49DbPxOQSRZFIUyATTXmq4UoBwLxTjWOZtGXCGTCK2UfdowQgIiLZ4f3x0LZYLi9xB7ors1939yVN0joSNpYzUnpERKRHCbZFMsVLx86Q5F5/Q5dqPpTLtcIr2vTitS6vdA6PBNxNIvqSWaIlUQ4RkeRwj4SSMzcdnykSEUdHV0gZTna7q2r6P75VAMwD1djKxErhsAt1jxKY+7LR9lx/uqk0OORXNCrePnis/NvLddjLRtuV8Ii2KFA4WdIBz/izzPOKohT0ZCsXf1NAVdVEr4SSqqomQm2RjKotFVVyFgX92SpUFLnWLY2jIxbrcLi7cys11Tb72iSV1g6bHd4fDyUTIQkOa53lxtIp8RprN5mKrviUzaVnWeDt0bTp+eJIRETczb25Q1cNvlUAzAPVmDIBAKwFC9eu9QTzL2Wj7c7OFdqqqZnIaY95UE0ZI2HFnYqMqsb2uVTB4d8R8fZ4SkfUZAd8Tn+DfoBoymPaIOjWlk8NuLXuaj3D+t3/WLS/xxu5v6jlIxttVzynI1rfv92ibTxB/Nn06VBzk8jIcHBFYbe8oU7nsWZVVdXRiHeoc+9IZYtCsulUQf+3Yo7mVm+uJ146PeR11bqbe3NJ1Fg63uZrri0uOlVNNPid5pDMpWdV4Oq2dGfPRCchIq6lXqtcFwBwyUiZAGBuCeVuu/Wb75DxysjezqFQQl+V1dHc6o2fTVvtRSQb3RH0Rnfn2ii0NCmX59T6Y2oiNNTpLGhySe71x0NJ/bbescrnNQ3j8UY35m/3m5qNlpbs8ZiRNuSNDceGQolcS5Gjw++2jF9rLHJ2DgU9iqK4g9LjUQpmvMi9pdbfZeQqlSuK9Nn4xEOn8uUwMhxs8zXXimupnkQljwW9rc2OkqITcQeSIfOQp4LSMwU2vN/0rqZAoneCQEREHK6GSbYAAEwfKRMAzCf5NiinPy6n0xPPJleSDKTS+Rnk3AEtJStsbgq6cweo64ybti/clXtjVGvu0IZFlQw6GkvH21zl2m5K43f4B1U1GZLehKl7nhpoyr2j/H4qWxQTqnU1SHB4JJ8g5ZKobPq0ebf5Hno6U8JpkZVpzVZTCwMAMGOqcfoHBonCLtQ9SmDuCyVKOndNIJXOSpP5Zr2h5AbdHRiNpOqM+QwklDSlK9Ycq3xe/3DyfldsKNQ1WG6L/BwJk8efTae8SzeKZNOnva77Jz/6BLuyYlUUrqXekpeKuJt7pT+ddJ2WhtUOEW2Ak3N4wJUqOPd4ekzEXLyWyZ6Z+V3Z9GmRpRNtnU2nRJon3+ss4lsFwDxQja1MNTU1LBYOW1D3KIG5rak5JMH+3AiZ7IBvwvWaHP5tobh/c25homx0W6fo3cOy0fb8PATZ47Fci5C7uVeCO3ItTmNR3wTTKtQ2+9qC/dti8bJTbDdtjLQFjRmxswPR5ITx53rHpdNDpUldORUrCnG4Gibs1Cci4l4divs9nUOhZj2ZdLhWSGq/+dzdG6PeoNso1WTYHSzT+FayY3OBZwc2dw5N8ob02XhodVVNmMe3CoD5oBpTJgDAJXEH1ESD36n1RtssuydpDmoKqMmGzjq985qx9JCIwz/YPJzv1dZgDDpyd6uJFZ36AbbJ7u4J7s4dza3e+JCUTPwguUNkIqc9uVC11MIyfne31rTlDky14ahSRSHS1BwyhnhZvr05JGJef8m9OhQfipvnjXB0xDLRVK6voEem1ljn7s5ERC9w59muycYyJYd76MgHAJWnqJe0SAYAYCqcTmcmk7m0V1ElsgO+zbI7n0RVq+yAz3m2S50oj62At99++/rrr5/RQwBAtaGVCQCAiTg6dvv2OyeZptx2I2GnvyExw/mSiHz2s5/dvHnziRMnZvpAAFA9qrGViZXCYRfqHiVQcbQyYZ5xOp0icsMNNyxZsuQrX/lKe3v7xI1OfKsAmAeqsZWJlcJhF+oeJQBgKt56661//dd//Zu/+ZuPf/zjEzc68a0CYB6oxpQJAABUv4sXL/7xj3+Mx+P33nvvnXfeuW/fvosXL9odFABUXjWuywQAC0d9fb3dIQCX66233nrrrbcefvjhhx9+ePv27d/+9rcn3v7111+fncAAoCJImQDATq+++qrdIQDT8O67707w6ptvvul0Oh999NFz585ZbcPPBADmnGpMmRgkCrtQ9yiB2fe+973P7hCAaZi4xhrpEBUbwHxSjSkTy4TDLtQ9SgAAAKAI0z8AAAAAgCVSJgAAAACwRMoEAAAAAJaqMWU6c+aMtlg4MMuoe5QAAABAkWqc/oFlwmEX6h4lAAAAUKQaW5kAAAAAoEqQMgEAAACAJVImAAAAALBUjWOZli9fbncIWKCoe5QAAABAkWpMmWpqauwOAQsUdY8SAAAAKELHPAAAUB1GwkpfMvdHMqwU8A1kTZsmw0o4WXYPiqK0R41Nk32+6FjRRhbvLdmVbyArkgwrpXso2aHpiGV3pRRskI22l92n6ZT7ktkBn1Kk5CjJvqJimSxORQmPTHnzaZi0SAuKKDvg8w1kswO+kjOadgmUlO2Uw9Ov74RbjkV9uQqZ7CtfdMk+RVF80bHi6qqYq81I/sXwSDbaXrJpSSRTv7KlW5Z7r1GNyxxdiyt/1iMlp2K1pVZEevmXlkDx9SpXhpN9diQbbbeqtNlou2L6xpjgKBVAygQAAKpBNrojKD0eRb+tdwfUTKTNGxlVVVXNRL2WbzPfWLsloarqoN+Re9Xd3ZWuCycL7uc8QQl6JrgLNxtzbRz1xeomzZomkjwWDG3LhyQjeztXdPlry23aFsmoqpoMaX95oxnVMBopKoLsgM/TI3G/c5Kb2tzm0XZPsDcRaLr0E8krvqsuLFKLNMDgcDWIiKMjpm5LO4uinU4JyFjU5w7KUGeZIii4aXYHRl392oEK0nKRXP6W3zIpnpK78DLGolq161+aUdWYvzYXeU6it2Bz7URyT+q1WlNat6d1Zd3datdZp1GNk32KRxKxDkfRVgG1K61X44Kja8GGinbamzCiMz6D5bcsEEqY91pyvdzdCXEXXJpknyfV2lwUayGHf0ck5S77AXT4B1V19bBFha8wUiYAAGC/ZJ8zvU1V1USoLbJRv61Pp4caXGVTi0KhpHGbFnAXv+gOJKV/wBUouEE03dvp+VXJb+TuYNzvVOqczrrOuMQ76xRl8uamMqcVVhRPjwTd+fQseUzPDCdNLQqMpeMrXMbNZXbA5/SLt8187vodrTe6saQQstF2Z+eQmI87YX41maZAwUHbvF4JhXoL7pj1u3Y9tfAEtcSmKEFtCpS7ZFMqARmL+uo6pc1rur/P5Sr5KpQLoK4zLkGPdrJaIWjXV1Gc/njRqSWkPzqWjbYrSl1nPFdiuYuYqwO1/tiEmfzUpc/GG0ynNeUrm6+xnh4x8kZPj+kqF+R+7oCW2hlKssfpMQpWO3Tf8BTe4w6MRlLuXJUbCXtOR3YXZXe5XDQv/wEsV2m1KmR6V/7jVlwCl0etPi+99NJLL71kdxRYiKh7lEDFORyOS34VmKMupdqX/CDtjWYSvfq/ImL6ATsTaTNt15vIRL2FN5flWd3dFrRjmCVDli9N8lu7ucHBnJ4lQm2RzGjEa2qOyES9pqOYdtubyL1kPJn/sT8TzecJiV69TSDRK8U/8xeUbelLmUjxffn0JUMioYR+momQWO0wETI3wiRD2gnmztZURFMrAXU04jXepcegt01d7hmZjUa8pnI277moOoWSpVXCFG0yZNoy125jPFlYH6ZxZXWFZVtYwfQN9EOreqtRsuDjFkoW/oiQnLh2F0aSDOXiL/ehKPggTKi39PyKGrhKjEa8ZVrMiq9UpVRjK9P4+Pj4+LjdUWAhou5RAgDsUeuPJUPeaEa7S85EvXG/U+tf5O7W7liMtgiHf9BIA7yR+90iph+VlYJfl3N99nzRMXF0xIx7KvMNoqkLUzbaXtDmE/fvTeZfKmpiMt84Ft6zTnR3mN67Lebb4bfsiVTYLU1ERNy5Bp18E4GjI6Z2a+WRTZ/WWxU8PWX3mAzXdUo0o6ob0+ZTGIv6lM2yQ730fnra7/rHmk2Xxh1Q1eZjE7VcJfv0Fjzp8TjPduVKzNTQNLUSkFp/LPeubDolWrdAd7DsMbXhSdkBn28gajVMR+stpoc3+eAovTppWb2qqoEmt7ndrTja4o55ImJqqTP1I53OlZ06d6Aox6v1x1Q9cVXVcnVgqh3zstEdQRnqdOolNkHHvKLyKfrIqLmzNpuskbnWH1O70nUzNDyvWDWmTAAAYAGK+51Of1z71xvNqKuHlb5k2e5D2bG0SCihdqXrwsOmhoVEb+72rtst+n1tJtImctx8q1w08MZIJBz+QbXrrNOUNQU9WgCKM9ba1VyBU3RtHIy59k31Jq9kNIuWiphH8G+WHeYbz+bhwqRRu1WNdThEHP7BrnSd4htIRtsVZZvsLuqmNR3JPkXZlm5oM/qA5YvU0yN6AlOuT5SeAGutN91uKR5KNMUSKBjAtll2FxTBsaKNXa62VHpMRKTB5Tdu3IsaJ7W0wd1dbsSUdTEM94js3xwekTIzVViUgHZahd3MjC2ndWUvXXqfT1H0xFVRptinrpyRvbEVIW9bJLNDNrf3py4zrCJj6VTJADmldJRa2ZRvBpAyAQCAqmBuZRJjzI9xY5dvu0gOp10NIiLugBqYUiazKlA8hEn/yTyUKMwc3N35didvNBE57dGmlIh1uB2XmGAYt32eoH6IjGvHlIYweaORfMyjEW+byyWit7PpYv5a8yRvpt/yy/xs727ulbi/X3YUtGxcAne3qg5udJXvLZZrQCgKwDyWqdbVcDqd1cbt7PcVj2aZvATMbYZqrMNhniQt1yyp5hqvHK4V8fSYpM/GxZRrOf3xfONk2Yn4lLJjmUwZy8hwqs0bF0m5w+lcPAU9LctcAv20ItGQ0ZKTiXq9S/XTmvqVNSVpuXFiGmNwkaJYjb5z3Z8vPVVV1e6Sz1B+zJuzc8ic4HlMDXnJsFu67neJiNT6Y4NdDUUZTl2nMUpMb75TTPspmbSjzO8IxT0MM5E2b7l2p4KBiAVjmSo3RfTmnZ8AACAASURBVCQpEwAAqD5n9/b35Aao6DeXekesZF+/rHIZG2q3wlNT9KO1p2xHLv0OzB0UcfkHEyEJ9pdJb8y7Krr/K9pt6UAdh38w49u/Oao3fZgSBm0/+Q5mzc29wWGtz9i+zob8tHvm5oiS2erK9CvT7yk9PVLSxHE5s42VaQQoPn1j+gft9ldP1VwuSe/tU5xnu4qTt6mWQEHDTtFdclGq4FrqTaWT6dP63XYomUtstKpVtllJ6zVnGheUHyGT6zgX3SG+VvG27o4lpVwNKaA1l+W72K1qDvUMJ0VEknv9DV2FvUOncmXzSWPR4KWCP4saErPRvr3p4qMUV4BsOmUaX2fdMW8sLcUTjVh2zDPlsXphlo7OKmosyh6PFcz2ISKSTg8VF2yyTwmPmPLJ/Niq8ru9ZNWYMi1fvnz58uV2R4GFiLpHCQCwkbljnpxOxY0BKrnfvMMjIpJNLzXP0J01boWnoLSVqZA+d/Zws2oMp3EH1Ixvv7MkD7m0sUwGh3+wpF/cWDpVMpLHfX8ktSOaHQl7TptmgTM1RxROIFFydD1j6U+VH0k/lVAnYNHKZN5EGzZTfKB0eiiYWprR0o98G9E0SsA6ZyiZ4NvhaoifHZ7i7Ism2ei2giStwMjezhXNeutMUyDm2qtVUa0Cm6qriCkJMQXm3hhN9Q9kk32eVEHiMeUrayiaSNBC+mw86HamVzeLXg5afSi/z4bJ9ydS6w9YNw9OZCTsOR3JjLr6Jxozltzrj4dWlzbTFV3E5HBPqNk8O6JbEoN+R361qIqpxpSppqampqbG7iiwEFH3KAEAdtFuK/Md81pzA1TyrUzaD8YOf4fpRmpsOCa+5klvhceivr7hiVqZ8pMZqCXTXjv8g6q6Le3Mt124AxNNje0OTLnb2+RNZLX+3a0xpzsVKTtpxFh0c0EbhTYCpODtMVVV1d2+qcUjWuvNVEfLTKGVqUSyT1GUflcyIvuHsyKTJ70Tl0CZxCabPl20B5e3JxjMdeqbxFg6ru223RlrzVi3Ubi0qUd0ubkczHnOxO0bjo7dvv3OMrNs62FMdmV1ybA7VRBJedn0aW9kVA3IcLC32S2Sa2wsvVjZ4f0yzdxyOkbCipbV1Ppj29JOi8Qm2ecJthVkyCLlSmDEOB0RyUa3xXyjAbeIaDuv4Azj1ZkyAQCABSY7vF98qxyOjljJKpwTKeqsZSHe6U53dTdP1MqkpRamwSfZotuzpkBJN6cpKh7LZFJwc589HpPSZT1Hwk6/hHqls2Q53WSfotSlu4qSN8s2h5IpByxCGt5f9tf9UuaBN4WsMsaxqM9Y+7XJ37Wi09mXNE+MNt0S0GbmSG8rSk5KZlqr9cdGI96hTqcSnmSig5Gw4pbQik5nX9o/aJ5NUdzdhUdp8k+5Muh1u+jZZJ+zU0Ih6SxNG6Z8ZbXliS2WRS6gtWpmozuM/MpodSw6ytR+gyjPciyTdlphRVF2uDLGEZsC6g7ZXLI0WXbA5+kJJUpr0Vg6Xpj3Jo8Fc3U1GVY2yw79E5rs01unKzmZnkVlBwBUAOsyYQG6xHWZ9KYk8xoyqqoWtDKZJEISSpTpkVXS/Sy/jWn6h3JL4uQY6z5NuCZMUTBl9mOKs2gz8+CZ/Bu1QSP60bXxNoUbJEKSm/25ZAEiU4+vsmFbLXFjNSXGZCdc2POtPP2q5cqzzEXM7Se/5ZRLoOCxapSJXgTm/mxGabdFMiUT5envyi+FpJfSRCdoOmjJylFFvJHRXA3Mr46ln2A+SPPVnM6VNaY4L1BmXab8yRZvX/JBKFnlTK85+TnKi65j2c9X8UvaKVvWK23nemzGKlu5szSXbcnyvvqWJctkFW9w+RRVVa0rBQDgsjidzkwmc2mvAnMU1R7APFONHfPOnDlz5swZu6PAQkTdowQAAACKXGV3AGWMj4/bHQIWKOoeJQAAAFCkGlMmAAAwj61atcquQy9btuz73/++XUcHMEeRMgEAgFm1b98+uw5tY7YGYO4iZQIAALNq6dKldocAANNQjSnT8uXL7Q4BCxR1jxIAAAAoUo0pU01Njd0hYIGi7lECAAAARapxknEAAAAAqBKkTAAAAABgiZQJAAAAACxVY8p05syZM2fO2B0FFiLqHiUAAABQpBqnfxgfH7c7BCxQ1D1KAICNMpnM3/3d32Wz2b1799odCwDkVWPKBAAAFpRjx4796Ec/evbZZxVF+drXvmZ3OABQgJQJAADYI5PJDA4O7t279/e///1//ud/Xnvttd/85je/9KUv2R0XABQgZQIAALPt2LFjP/zhD5977rkrrrjinXfeEZHrrrvum9/85n333Wd3aABQTFFV1e4YimmjKVhSE7OPukcJVJzT6cxkMpf2KjBHTVrtnU7nG2+88cc//tF48oorrli8ePGNN94407FdddVVP//5z2f6KADmmWpsZeJ2DXah7lECAGbBxo0b//mf//mnP/3pVVdd9d///d8i8sc//vHdd98NBAJLly61OzoAKFaNrUwAMG/QyoQFaIrV/ve///3g4OAPfvCD119//a233hKRxYsXx2KxT3ziE7MXKwBMQTWuywQAAOa9a6655r777vv5z3/+5JNPdnR0XH311b/73e++8IUvvPTSS3aHBgAFSJkAAICdGhoaduzY8corr4TD4RtuuOHBBx+0OyIAKFCNY5nOnDkjIsuXL7c7ECw41D1KAIBdrrnmmnvvvffee+998cUX7Y4FAApUY8qkzdkFzD7qHiUAwHa333673SEAQAE65gEAAACAJVImAAAAALBEygQAAAAAlqpxLBNDz2EX6h4lAAAAUKQaU6aamhq7Q8ACRd2jBAAAAIrQMQ8AAAAALJEyAQAAAIAlUiYAAAAAsFSNKdOZM2fOnDljdxRYiKh7lAAAAECRakyZxsfHx8fH7Y4CCxF1jxKYV8aiPsUXHbM7DAAA5rhqTJkAAAAAoEqQMgHAXDMSVtqjyQGfoii+gaz+jC7XrDQSVuo64xLvrFOU9mhWJNmnKH3J3C6SYUUJjxiPfdGRqE/RtsxG25XwSDbaXrjDQtkBn9KXTPYpirGf0hjMT+YOrb0xO+DTn2+PZk17zR20ZCft0WzJrvS9aVsPZMvsxLQlAACXjJQJAOagoc5+2a2qaqzDISNhxZ2KjKqqqqrJhs66cFJEmgLqaMQr3sioqg76HZPsLt65Q3ar+S2D7s2yQ1VVNdEb79xmzmpMejzDq1VVVQNNUj6GsajPeHJ1Op8C9Xg2y25VVVU1E5FOp57YZKPtzs4VCVU1dmLKmoY6nceaVVVVRyPeHo+RpDn9DdobdstwsngnmchpjymVAgDgElVjyrR8+fLly5fbHQUWIuoeJTB3hLo6tOwmG90R9EZ3+2tFRKSpOSSp9PTHL4W2FaRVxg7d90e8Q+l02fe0RTY2yWQxxPUHTX79VRFpi+zWg3f4t4WkZzgpIiN7O4dCiW63vk1TINEbjx03Ep7cS7X+rl5JpY3n9QM5Ovzu4p04mlu98bPlYwcAYOqqMWWqqampqamxOwosRNQ9SmDOaHO5TH/F/c5cXzRP0MhSpsHrqi34u8E1WbuUiKwo2KhMDLX+WDIUdBd1nCt8Y63LazwuPCkRySc8JS+JiDQFMlHprDN1DhQRCXpycTj9cTmdppkJAHCZqjFlAgBMizeaUU0CTVUTQ1NA600nfqcpqzEZS8eNdKikOcu7tEyiZOboiKmqqiZDQbfRiy+UMMcxeadEAAAmQcoEAHOao7nVG/fvzU10kAy3lx965Frq1bvAiWQH+oOzEMNIWE+Tapt9babNjcFIkgy7g97WZoeING2MtAU9xoQNI2FPj9H5sLzsQFhPk5qaQ2I8CPbnWrSyA77yeRoAANNBygQAc5ujI5aJpnK90YabjXaVWn9Xb37GPEfH7kib3mlts/hCsxBD00bXDr2LXOeKRL7tqzfRfEzvwpeKZmLGuKbBTOR0bh9uSagBt9Xx9IM2p+uM/WgjqdwBNdGQ6yK4WXbb0uAGAJhnFFVV7Y6h2JkzZ0SEMeiYfdQ9SqDinE5nJpO5tFf37dv30ksvPfLIIzMTmj2yAz7n2S61e+JsCHPb5VR7AKhCV9kdQBnj4+N2h4AFirpHCVSDl19++cc//vGTTz75zjvvfPazn7U7HAAAFrpqTJkAYGGKxWJay9J7772nKMrXvva1hx9+2O6gAABY6EiZAMBmWrPS3//934vIxYsXReTaa6/9yle+Mi/zJUdHrOq6gwMAMCGmfwAAO61fv/4v/uIvfvzjH1+8eFHLl66++mq/33/bbbfde++98XhcROLxOI95PIcei4jX673rrrs+8YlPrFq1qrW11WtSmU8OAMyiamxlYug57ELdowRm35//+Z9fccUVp06duvrqq9955x3tyePHj2/YsOH+++93uVwi8id/8icf+MAHeMzjufL4ox/9aE1Nzfj4+Pj4+HXXXbd48eJFixYZdf7OO++8rM8MAMy6apwxDwDmjSlOHfbqq68+8cQTTz755HvvvXfx4sVrrrnm5ptv/od/+IclS5bMYrAAAKAMUiYAmEHTnW35qaee2rdv369//Wvt1aeffpqsCQAAe5EyAcAMurQFarRGpx/96Ec33njjyZMnZzJAAAAwCVImAJhBl7mm54kTJ1auXDkDcQEAgKmqxhnzzpw5c+bMGbujwEJE3aMEqg35EuY6vlUAzAPVOGPe+Pi43SFggaLuUQIAKotvFQDzQDW2MgEAAABAlSBlAgAAAABLpEwAAAAAYKkaxzItX77c7hCwQFH3KAEAlcW3CoB5oBpTppqaGrtDwAJF3aMEAFQW3yoA5gE65gEAAACAJVImAAAAALBEygQAAAAAlqoxZZrxlcLHoj7FFx2bwSNgjmKVekoAQGXxrQJgHqjG6R9YKRx2oe5RAgAqi28VAPNANbYyXbqRsNIeTQ74FEXxDWT1Z3S5ZqWRsFLXGZd4Z52itEezIsk+RelL5naRDCtKeMR47IuORH2KtmU22q6ER7LR9sIdFsoO+JS+ZLJPUYz9lMZgfjJ3aO2N2QGf/nx7NGvaa+6gJTtpj2ZLdqXvTdt6IFtmJ6YtAQAAAExgfqVMIjLU2S+7VVWNdThkJKy4U5FRVVVVNdnQWRdOikhTQB2NeMUbGVXVQb9jkt3FO3fIbjW/ZdC9WXaoqqomeuOd28xZjUmPZ3i1qqpqoEnKxzAW9RlPrk7nU6Aez2bZraqqqmYi0unUE5tstN3ZuSKhqsZOTFnTUKfzWLOqqupoxNvjMZI0p79Be8NuGU4W7yQTOe0xpVIAAAAALM27lElCXR1adpON7gh6o7v9tSIi0tQcklR6+uOXQtsK0ipjh+77I96hdLrse9oiG5tkshji+oMmv/6qiLRFduvBO/zbQtIznBSRkb2dQ6FEt1vfpimQ6I3HjhsJT+6lWn9Xr6TSxvP6gRwdfnfxThzNrd742fKxAwAAADCrxrFMl7VSeJvLZfor7ncq/vyfoTGR2pK3TMTrKty+wTVZu5SIrCjYqEwMTf5YMq24laCIN5qJdTjKvLHW5ZVcVlN4UiISP5sWcZR9SUSkKZCJ+px1SqdIKKkG9Pwt6FGC+W3afFlxT+FkFhZWqacEAFQW3yoA5oFqbGWqqamp1GLh3mhGNcklD7OqfAxNAa03nfiduaFThcbScSMdKmnO8i4tkyiZOTpiqqqqyVDQbfTiCyXMcUzeKXEhqmDdm6MoAQCVxbcKgHmgGlOmCnE0t3rj/r25iQ6S4fbyQ49cS716FziR7EB/sNw2FY5hJKynSbXNvjbT5sZgJEmG3UFva7NDRJo2RtqCHmPChpGwp8fofFhediCsp0lNzSExHgT7c+OXsgO+8nkaAAAAgELzOGUSR0csE0159EnihpuNdpVaf1dvfsY8R8fuSFtQ22yz+EKzEEPTRtcO7Rln54pEvu2rN9F8THvek8p32HP4BzOR07l9uCWhBtxWx9MP2pyuM/ajjaRyB9REg9+p6Ke525YGNwAAAGDOUVRVtTuGaTtx4sTIyMjWrVvtDqSSsgM+59kutXvibAjAHON0OjOZzKW9CgAAqkE1tjJZrRR+8eLFffv2eTyetra2n/zkJ7MfGOY9VqmnBABUFt8qAOaBapwxr3Sl8BMnTuzbt+/gwYPXXHONqqper/fb3/62LbFhfmOVekoAQGXxrQJgHqjGlMlw8eLFwcHBPXv2vPnmmxcvXhSRK6+8ct26dfMyX3J0xOZeF0kAAABgvrvym9/8pt0xFBsdHRWRv/zLvwwGg8lk8vz58++8846ILFq06Atf+EJLS8vevXtF5JZbbvnHf/xHHvO4go8vXrzodDpfeeWVKoln9h8/9dRThw8ffv/7318l8cyDx/F4/Ne//vXzzz+/a9euaDT661//+mcmp06d6urqmvgrEZjTtP/T6+rq7A4EAC5d9bYy3XrrrWNjY//1X/9lPPPuu+/+27/924033vixj33sxhtvFBEe87iyj6+88krbY7D38Q033PCRj3ykeuKZB49vv/32d955R+ub9NZbb509e/ZDH/qQ8bW2fv16AQAA1a0aZ8zT7i20le+effbZH/7whz/72c8WLVr09ttvv+9972tsbNy/f7/dMWJ+Mte9hYkSmFGJREJEPB6P3YEAs4dvFQDzQDWmTKXOnz8/ODj4gx/84O2337548WJDQ8PTTz9td1AAMD2kTAAAzEVzI2UyPPvssz/60Y9++tOfOp3OkydP2h0OAEwDKRMAAHPRHEuZNOfPn/+nf/qn1tZWuwMBgGl48803RcQ8lgkAAFS/OZkyAQAAAMDsuMLuAMpgpXDYhbpHCQCoLL5VAMwD1TjJOCuFwy7UPUoAQGXxrQJgHqjGViYAAAAAqBKkTAAwS1555ZVXXnnF7igAAMD0kDIBwCx58803tUnzAADAHFKNY5mWL19udwhYoKh7lACAyuJbBcA8UI0pU01Njd0hYIGi7lECACqLbxUA8wAd8wAAAADAUjW2MgHAvPTxj3/c7hAAAMC0Kaqq2h0DAAAAAFSpamxlSiQSIuLxeOwOBDPit7/97csvv2x3FOWdPfuqiCxd+jG7A7F022233XrrrZNudsmFfDklMMXYKqia69J8MvtXFhVn44fF9u9VKjCAy1eNrUykTPPYjh3fufLKRZ/85J/ZHchcderUr95777+3bfvrCbaxq5CnElsFUZdmzSxfWVTcAv+wUIEBXL5qbGUiWZqvMpnMe+8pbW0ddgcyh33sY7c++eQPM5mM0+ksu4GNhTxpbBVEXZpNs3llUXF8WKjAAC7fTM6YNxJWDO3RrP5sMqwo4RHtcTbarih9yRmMAdUknU7feusn7I5izrv11k+k02mrV+0t5IljqyDq0iybtSuLiuPDIlRgAJdtplKmZJ+iuCWh5mxLO2cmNcoO+Ez5GAAAAABU0ox0zMsO+Dw9oYQacBtPNQXUptINHf5B1T8TEQAAAABAJcxEK1Nyrz8eSpryJUvZaLviGzA1EY1FfbmufLnOe5Lry5eNtusv5d6SjbYrTn9chjqdCh38AAAAAFTeDKRMY+mUeF2103/jSFipi/lGVVVV1dFIyu2LjuVfDLo3yw5VVdVM1Bv3b46OidZIlYl6pS2SUVW1ewo5GgAAAABMx4ykTHFpmH7KlI3uCHqju/3aG2v9Xb3x2PF8A5TxkqOjKyTx9Fj5vQAAAABABVXPJOPp9JDEh5yKeWxTb1rEoT1scDlsCQsAAADAQjYDrUy1Lq8Eh0cm37BUKKkWoK/dgnFy5+L6+sVffeqNgmdT/fX1/SdnN4b6+sX19fcdyFR2328ceHBx/c4Tld3pdJlOsKS0M0NfrTe/WqbYzz91X34Du89lNpjL5BLP940DD5bU6pINJijzy3NiV+lnCiiV6s9/tB8cOm93OABQhWYiZfJ39Upwx3Qn/na52iR4jCkcFrQjW7oqnatM1cmdi1tf3nPy3IVz5y6cO7dltHee3jdsP3pOO8fn98iWZYX30+sfe147/Qv7t4daC+7g3zjw4OLGZ76QK58LJz+6a57fi2eGvnrHptsP5M93V0p/5fxT91XotvKNAw8u23qbcUVu/t5CSERRZU7uXFy/QfbnPtrnNr3WSD0EgBIzsi6TuzsRGup0mpdLGglPNqOdw78tJD0eY6K8ZF/B9A8TGWKBunlhe/AhObh10I7/rTND33t0/WM9bUv0v1duedx4XBE3bXj8wrmvr6zkLi+Ts+2B7XLk314r+2Lj148+JKFELkk4uXPZVtlz0lQmS+554rv33DQbcdrk5OCmI9uPbmnQ/1xyzxPG44pJPbH1cHC/USucbd+tcA1ZueXchfl9mXCZzj91X+ujwf3nuhqNpxq6quubCgCqwwwtZesOqGpiRaczN2O4cqx58l52TYFM1Bt06+8YXh3zT2EOCUdHV0iCHiYZnw/u+uKu9fLoGuPn/BIndpXtKKX13zP6ljw4dN7cCa3oF1NTb6vCAx0ctW7gyu/N1LygtTac1Lqr7Tyhb2Zuf0j15/r4lXTQsgjD1Plt9nokTqI4n6xq55+6z9Sv8o0DD5rrg1GkJ3aZL1m550VEXn6tpCnpjQMPLm7cclAOb2o0tswMfbWgJ+eJXcVVq3z9ERGRU9a1Ll/bzTWnpNYV9/k8/9R9uTMqiWQO1TrMhhNPbjn40AFTvlTC3B234BtM+9bN16jCzsyF38basQprY8FXYkGtNlfs0uNaVldt/9qnpuI9qwFgplImERF3d9lRSe6Aqgb0ZW0d/kE11pGf18HRETPeEcgvfWt+S/k/Gfg0Pyy5p/+xdfLIhvL3bSd3PufRe48cfejRNYX/j4Zaj9+lv3R4U2P94u999Dda97O15hws1V9/x9Nrn9d7pr24Ifc/q7Ptge3yyIbiO10R0f7nbhW999T+2zYV9Fo5vOl70n/unN6C1LgqKIdfO2cEfDwk27dscJbssrDTl2dUv6s4uTPf+e3krlOtMzqoQEuE2i1+Ts689qKsr3Pqj4/IJ+tKz6IqLbmn/7F1ubZKrRnn8bYluXaz7z31hoicf2rXI+v2nNQumdXz7XvWHt7UWHwJbtrw+IWTu9bLuj0nz0212fDIlmWJVdq1/s1jYqo/Dfc9tu7g1jvK3d5lhr5av0b0GnL09i3LCmpmQa276c7PrTdld2/88pmDa3fdV+YmuBpqHaqK+WNezsmdixu3fDLXZ+/o7cVdeUOtvRLSKva6g1uNzsyZoa9uOKX38u2RX1r+BFbIqNXP71n76Jr6+mWjmy6cO3fh3IGgucP2xNX1kQ3a/xFPlPnWBYDLM4MpEzB9N23o2bNWQq3lOtM3ft34NXSlp7hTmXH3v/KLu9aLBB/Q+iM571q7Tl4c1f6bf+PAntDaXf36/6bOtge2Hzxy4o3czi/s3y6PbCj5ob2w91Rj+561jz5n2iB3IE3DXab+bCcSj8pDq8rcVRd1+mq8p22JFDfmLLlny0OHn/5lxX8rfXSN/gNtr4QsbyzeONC76Ugu2Ts/ekrW3Vxf6UBmzE0bevasfXTXgcwbB/aETL+gr9xyIHhkyxMn5cSTW6SgE2bZ551t331+z9rDmxovfwaF/LW+acOmoOTrz00bHv/NY+sObr2juPWpsIas/OKu9Y8cN38iCmrdkpVfWGtUlcxzRw6vX7uyTGc8O2sdqtPEv4Zkhr73qJT7BBmMmnPThk2mX4vMu3W2bZhqj1bjS7vtge0i6/Z8UXtjw10PGV0AJquu5X8sAIBKIGVClXG2hXatl0d3letZke+q0fpo0UuF//GXv8V/bfSwHNmyzOhn0vpoQd7V+PUL584dfUhCraa75POjp0RCrUaHwDs2HTF3pio+0ErPdtHvblPPPSJBT5nbBYtUKvPaETm49Q5j/rQ1j0zYV/ASadM/PL9n7eFNTxb/+mscfdnW247O4fEMzrbQLtl6x7Ktkrvr0jR07d8eaq1f80hR05/V88627567cHLX+iNbll1Oj7W1H73ZtM+b1xZ0xrtpw+P65WjMd1t6Y/RlU3Jbv7hxy8GCXoJFtc5519p1evJ//sTTR9Z94c4yN8G21jrMRZnXjhR9gxXXXot0q+Guom/RKSmq1bfdXKYn8GTV9fY6Ru4BmCnVsy6T7mc/+9mLL/7ft9/+3fXXX3f77f/j7rvvtjsizLYl9/Q/9syyrb1Dd24yP31iV/2aF3f95tzjN4k2wd0l7fyhAxcmHMe/csu5C1986r7GLV0HVuYaYdYVzHwwscZVQdnw3Mmvr5TjIdl+dJo/eRaOw545zrbQrqcbN/R7Cg63/rHny7Q7Lan7pBx++peZtrnX16XsXVdRDjPZ80vueeLcPSd21a9p3XnXTKWRzrbvnms7uXNxq+mKrN31mynP3HDTnZ9bv/WZ587fc9cvnzm49nP90xx1Nlu1DtXGefNa2ZRIdTVWeGqTlVvOXdiS6q/fsKx+y6RfudNFdQVgjypqZfrbv32ku/tbv/udsm7dF7/0pb9ct+6Lv/ud0t39rb/920fsDg2z7KYNPXvWHt4U3HMq/1zquUeKesFN281166Swg1N5S+7Z8pDxWE8YpnwQvW/eiYTlSKGb6/J9BU2cN681TVI305bcs8UYwzMJbciNLTMZXprMUHCLPPb80YeKphJJ9bc+Gtz//B4pmsve6vk8rbenBefNt5t/6s689mLh6wU9SK27QjW271mrP7yp7jY58sxzUx9TpPfNSz135LDVZ6Qqah2qizaGc4/F6LXiNqVpDmts6Dp37sJ+o9W9uAa+Nnr4EgKmugKwTVWkTJlM5hvfePhTn1rzwAN//ad/+meLFi0SkUWLFv3pn/7ZAw/89ac+teYb33g4k6GzyELibAvtWn/k8MHCZ3P/f6f6SzrmTYU2kiR/G31yZ27kfWboqwVT4e16xLgz0BIG88jmSRYtN/yDswAACO5JREFUWenZLi8ef+7F8v2j9DCO5Af0v3Fg59B5MaagMM3eNrMD8Vd+cdf6qS2EpY0OWlM0LVu1rstkDMRa+cVd6wvKc0No7a77Gp1tD2w3XVCL50/uNM8FcuLJLQcL2qBMk3wUpuJvHOjddKQoonyVyx1L+yvVby7Sk4ObjuT6JmmTTwRN84lZTyMpInrfvNHjrx3ZfpfFD/BVUutQXRq/fvShomlOjGqpfSLuKPkETbrTVL+5i2nug1PwQ8DJnWsu5adQqisA+9jfMe/dd9/9znd2/dVffcNqg/r6j/7VX33jO9/521DoW+973/tmMzbYaMk9/Y89c3Cr8UtkQ9f+7Ytb71i8VUS2H92/XS6lY15D18ldpxo3LNb+t37owIUtuTHK3+0Z+mr9Yv1md92ek+eMnng3bXj86Gj9msb6TfpLj0/SO6uxfY/csUl2/cayf1RD17kDUq+Hsf6x55/Qtmz8+m8ee3lZa31IRLT+JzM6r/eSe7Y8tGXN1t6hOyftduhs++65uw48uKw+N9pgOt3GZtXJncu2Hg7uf3yl5Hp4tj5488nH7/rlg2seWbfn5D03iXabWL+mcefN575+84Hyz69s/PoF2bm4foO+24cOXPhufo2mLQ9tWdNaH5Lt2oivmzb07Dlyx5r6R7Utjz50eI05pLW7jtbtWVx/WHtsKreGrnPSX1+f23j70XOPm9ZoOvCa1q9Jf9ckXZtu2rApWL8h9NCBC5abVEetQ5VZueXcBc/Oxfr3m0iuVotok+LI4lzdKPgUTKThvroH9Qov24+ey1V4/fNVv0lE1u46+ti6NcU/LkwB1RWAXRRVVe2N4Fvf6mtt7ayp+eDEm42P/8f+/ZH/83+6ZycqzIREIvH//t/bjY1zdl6B6nDy5IkPf/h6j8dT9lV7C3ni2CqIujTLZu3KouL4sAgVGMBls7lj3ujo6LXX3jBpviQiNTUfvPbaG0ZHR2chKgAAAADQ2JwyHTx4aM2aliluvGZNy8GDh2Y0HgAAAAAwszllev31f//gB6faFfmDH1zy+uv/PqPxAAAAAICZzSnTH/7w3oxuDwAAAACXw+aUSVGUGd0eAAAAAC6HzSnT9ddfN6PbAwAAAMDlsDll+tSnPCMjx6e48cjI8U99ihlCAQAAAMwem1Omz3zmM7/6VWKKG//qV4nPfOYzMxoPZpTD4chkmCb+cmUyow6Hw+pVewt54tgqiLo0y2btyqLi+LAIFRjAZbvK7gBk7do1sVjU5/NPvFksFl27ds3shIQZcsstt5w/H/3lL3/xP/9nk92xzFUvvDBy/vy/33LLLVYb2FjIk8ZWQdSl2TSbVxYVx4eFCgzg8imqqtodg3z/+3vfeUfWr/9fVhscPPgPV18tX/nKxtmMCjPk2LGfvfji/7U7irnq9tv/x+rVd0+6mS2FPMXYKoi6NDtm/8qi4hbyh4UKDODyVUXKJCKHDh1KJJ7/3Oc2uFxLzc+n02efeeaAx3NHS8tUV7wFAAAAgEqplpRJ84Mf7HvllbNXXnnV22//7vrrr3vvvT98/ONLv/zl++2OCwAAAMACVV0pk6G/v7+rq8vuKAAAAAAsdDbPmAcAAAAA1YyUCQAAAAAskTIBAAAAgCVSJgAAAACwRMoEAAAAAJZImQAAAADA0lWzfLxEIpFOpyfd7F/+5V8ikcikm7lcLo/HU4m4AAAAAKCM2U6ZXC6Xy+WadLPf/va3zc3NsxAPAAAAAExgtlMmp9M5lc3e//73T3FLAAAAAJg5jGUCAAAAAEukTAAAAABgiZQJAAAAACyRMgEAAACAJVImAAAAALBEygQAAAAAlkiZAAAAAMASKRMAAAAAWCJlAgAAAABLpEwAAAAAYImUCQAAAAAskTIBAAAAgCVSJgAAAACwRMoEAAAAAJZImQAAAADAEikTAAAAAFiqxpTp4sWLb7311sWLF+0OBAAAAMBCV40p06FDh26++eZDhw7ZHQgAAACAha7qUqZDhw596EMf+vKXv/yhD32IrAkAAACAvaorZXr22Wf/8Ic/3H333SJy9913/+EPf3j22WftDgoAAADAwlVFKdMLL7zw+uuvt7S0GM+0tLS8/vrrL7zwgo1RAQAAAFjIqiVlOnPmTCqVamlpueqqq4wnr7rqqpaWllQqdebMGRtjAwAAALBgVUXKNDo6+pOf/KSlpeUDH/hA0Usf+MAHWlpafvKTn4yOjtoSGwAAAICFzP6UaXx8/NChQy0tLR/5yEfKbvCRj3ykpaXl0KFD4+PjsxwbAAAAgAXO5pTp3XffPXTo0MqVK5ctWzbBZsuWLVu5cuWhQ4fefffdWYsNAAAAAGxOmQ4ePFhfX9/Y2Djplo2NjfX19QcPHpyFqAAAAABAY2fKdPTo0UWLFn3605+e4vaf/vSnFy1adPTo0RmNCgAAAAAMtqVMiUTiwoULn//856f1rs9//vMXLlxIJBIzFBUAAAAAmNmTMp06derll182L8E0dS0tLS+//PKpU6cqHhUAAAAAFLEhZXr11Vd/8YtftLS0XHfddZfw9uuuu66lpeUXv/jFq6++WvHYAAAAAMBstlOmbDarTSn+4Q9/+JJ38uEPf1ibdjybzVYwNgAAAAAoMqspk6qqL7zwQnNz8y233HKZu7rllluam5tfeOEFVVUrEhsAAAAAlFJIOQAAAADAis3rMgEAAABANSNlAgAAAABLpEwAAAAAYImUCQAAAAAskTIBAAAAgCVSJgAAAACwRMoEAAAAAJZImQAAAADAEikTAAAAAFgiZQIAAAAAS6RMAAAAAGCJlAkAAAAALJEyAQAAAIAlUiYAAAAAsETKBAAAAACWSJkAAAAAwBIpEwAAAABYImUCAAAAAEukTAAAAABgiZQJAAAAACyRMgEAAACAJVImAAAAALBEygQAAAAAlkiZAAAAAMASKRMAAAAAWCJlAgAAAABLpEwAAAAAYImUCQAAAAAskTIBAAAAgCVSJgAAAACwRMoEAAAAAJZImQAAAADAEikTAAAAAFgiZQIAAAAAS6RMAAAAAGDp/wPQqIiN1evcqAAAAABJRU5ErkJggg==;" vertex="1" parent="1">
          <mxGeometry y="1169" width="1210" height="644.56" as="geometry" />
        </mxCell>
        <mxCell id="nIbAqqJ6I6tUwXIwnfjO-68" value="&lt;span style=&quot;font-size: 12px;&quot;&gt;Closeable startServer() throws Exception;&lt;/span&gt;" style="text;strokeColor=none;fillColor=none;html=1;fontSize=24;fontStyle=1;verticalAlign=middle;align=center;" vertex="1" parent="1">
          <mxGeometry x="395" y="1045" width="245" height="40" as="geometry" />
        </mxCell>
        <mxCell id="nIbAqqJ6I6tUwXIwnfjO-70" style="edgeStyle=orthogonalEdgeStyle;rounded=0;orthogonalLoop=1;jettySize=auto;html=1;exitX=0.5;exitY=1;exitDx=0;exitDy=0;fontSize=12;" edge="1" parent="1" source="nIbAqqJ6I6tUwXIwnfjO-56" target="nIbAqqJ6I6tUwXIwnfjO-56">
          <mxGeometry relative="1" as="geometry" />
        </mxCell>
        <mxCell id="nIbAqqJ6I6tUwXIwnfjO-81" style="edgeStyle=orthogonalEdgeStyle;rounded=0;orthogonalLoop=1;jettySize=auto;html=1;exitX=0.5;exitY=1;exitDx=0;exitDy=0;fontSize=12;" edge="1" parent="1">
          <mxGeometry relative="1" as="geometry">
            <mxPoint x="1400" y="1130" as="sourcePoint" />
            <mxPoint x="1400" y="1130" as="targetPoint" />
          </mxGeometry>
        </mxCell>
        <mxCell id="nIbAqqJ6I6tUwXIwnfjO-82" value="客户端&lt;br&gt;&lt;br&gt;&lt;div&gt;&lt;span style=&quot;background-color: initial;&quot;&gt;@Component&lt;/span&gt;&lt;br&gt;&lt;/div&gt;&lt;div&gt;public class HelloClient {&lt;/div&gt;&lt;div&gt;&lt;br&gt;&lt;/div&gt;&lt;div&gt;&amp;nbsp; &amp;nbsp; @Service&lt;/div&gt;&lt;div&gt;&amp;nbsp; &amp;nbsp; private HelloService helloService;&lt;/div&gt;&lt;div&gt;&lt;br&gt;&lt;/div&gt;&lt;div&gt;&amp;nbsp; &amp;nbsp; public String hello() {&lt;/div&gt;&lt;div&gt;&amp;nbsp; &amp;nbsp; &amp;nbsp; return helloService.hello(&quot;World&quot;);&lt;/div&gt;&lt;div&gt;&amp;nbsp; &amp;nbsp; }&lt;/div&gt;&lt;div&gt;}&lt;/div&gt;&lt;br&gt;&lt;br&gt;URI uri = nameService.lookupService(serviceName);&lt;br&gt;HelloService helloService = rpcAccessPoint.getRemoteService(uri, HelloService.class);&lt;br&gt;String response = helloService.hello(name);&lt;br&gt;logger.info(&quot;收到响应: {}.&quot;, response);" style="rounded=1;whiteSpace=wrap;html=1;fontSize=12;" vertex="1" parent="1">
          <mxGeometry x="770" y="860" width="340" height="290" as="geometry" />
        </mxCell>
        <mxCell id="nIbAqqJ6I6tUwXIwnfjO-83" value="服务端&lt;br&gt;&lt;br&gt;&lt;br&gt;&lt;br&gt;&lt;br&gt;&lt;br&gt;&lt;div&gt;&lt;span style=&quot;background-color: initial;&quot;&gt;@Component&lt;/span&gt;&lt;br style=&quot;font-weight: 700;&quot;&gt;&lt;div style=&quot;font-weight: 700;&quot;&gt;&lt;font style=&quot;font-weight: normal; font-size: 12px;&quot;&gt;public class HelloServiceImpl implements HelloService {&lt;/font&gt;&lt;/div&gt;&lt;div style=&quot;font-weight: 700;&quot;&gt;&lt;span style=&quot;background-color: initial; font-weight: normal;&quot;&gt;@Override&lt;/span&gt;&lt;/div&gt;&lt;div style=&quot;font-weight: 700;&quot;&gt;&lt;font style=&quot;font-weight: normal; font-size: 12px;&quot;&gt;&amp;nbsp; &amp;nbsp; public String hello(String name) {&lt;/font&gt;&lt;/div&gt;&lt;div style=&quot;font-weight: 700;&quot;&gt;&lt;font style=&quot;font-weight: normal; font-size: 12px;&quot;&gt;&amp;nbsp; &amp;nbsp; &amp;nbsp; &amp;nbsp; return &quot;Hello &quot; + name;&lt;/font&gt;&lt;/div&gt;&lt;div style=&quot;font-weight: 700;&quot;&gt;&lt;font style=&quot;font-weight: normal; font-size: 12px;&quot;&gt;&amp;nbsp; &amp;nbsp; }&lt;/font&gt;&lt;/div&gt;&lt;div style=&quot;font-weight: 700;&quot;&gt;&lt;font style=&quot;font-weight: normal; font-size: 12px;&quot;&gt;}&lt;/font&gt;&lt;/div&gt;&lt;/div&gt;&lt;div&gt;rpcAccessPoint.startServer();&lt;/div&gt;&lt;div&gt;URI uri = rpcAccessPoint.addServiceProvider(helloService, HelloService.class);&lt;/div&gt;&lt;div&gt;nameService.registerService(serviceName, uri);&lt;/div&gt;" style="rounded=1;whiteSpace=wrap;html=1;fontSize=12;" vertex="1" parent="1">
          <mxGeometry x="1140" y="866.78" width="350" height="286.44" as="geometry" />
        </mxCell>
      </root>
    </mxGraphModel>
  </diagram>
</mxfile>
